<?xml version="1.0" encoding="UTF-8"?>
<svg id="Layer_1" data-name="Layer 1" xmlns="http://www.w3.org/2000/svg" viewBox="0 0 268.12 330.87">
  <defs>
    <style>
      .cls-1 {
        fill: #00a0df;
      }

      .cls-1, .cls-2, .cls-3, .cls-4, .cls-5, .cls-6, .cls-7, .cls-8, .cls-9, .cls-10, .cls-11, .cls-12, .cls-13, .cls-14, .cls-15, .cls-16 {
        stroke-width: 0px;
      }

      .cls-2 {
        fill: #d24342;
      }

      .cls-3 {
        fill: #f9ecda;
      }

      .cls-4 {
        fill: #568099;
      }

      .cls-17 {
        stroke: #f6b738;
        stroke-width: .02px;
      }

      .cls-17, .cls-18, .cls-12 {
        fill: none;
      }

      .cls-5 {
        fill: #ee9b3a;
      }

      .cls-6 {
        fill: #205979;
      }

      .cls-7 {
        fill: #3b85c3;
      }

      .cls-8 {
        fill: #0088c9;
      }

      .cls-18 {
        stroke: #fff;
        stroke-width: 0px;
      }

      .cls-9 {
        fill: #dd3443;
      }

      .cls-10 {
        fill: #0093d2;
      }

      .cls-11 {
        fill: #df3b40;
      }

      .cls-12 {
        stroke: #ee9b3a;
      }

      .cls-13 {
        fill: #fff;
      }

      .cls-14 {
        fill: #dd363a;
      }

      .cls-15 {
        fill: #dd393c;
      }

      .cls-16 {
        fill: #f6b738;
      }
    </style>
  </defs>
  <path class="cls-13" d="M134.31,330.87S10.89,295.1,0,188.26L.52,0"/>
  <path class="cls-13" d="M.52,0h267.6v188.26s-1.55,99.06-133.8,142.62"/>
  <path class="cls-7" d="M14.66,17.52h239.26v168.32s-1.38,88.57-119.62,127.51c0,0-110.36-31.98-120.1-127.51l.47-168.32"/>
  <path class="cls-4" d="M134.31,326.21S14.36,291.45,3.78,187.62L4.28,4.67"/>
  <path class="cls-4" d="M4.28,4.67h260.06v182.95s-1.51,96.26-130.03,138.59"/>
  <path class="cls-6" d="M14.19,185.84c9.74,95.53,120.1,127.51,120.1,127.51,118.24-38.94,119.62-127.51,119.62-127.51V17.52H14.66l-.47,168.32"/>
  <path class="cls-13" d="M116.28,253.8v10.97h2.12v2.91h-8.42v-2.91h2.88v-6.88c-.98.61-2.03,1.15-3.19,1.55l-.9-1.92,5.12-3.71h2.39"/>
  <path class="cls-13" d="M122.05,260.76c.63.07,1.22.11,1.82.11,1.97,0,2.95-.69,2.95-2.1,0-1.15-.71-1.99-2.26-1.99-1.78,0-3.13.82-3.94,1.49l-1.86-2.27c.72-.54,1.62-1.08,2.47-1.42,1.22-.5,2.53-.81,3.8-.81,3.32,0,5.74,1.97,5.74,4.64,0,1.42-.62,2.73-1.75,3.41-.35.22-.5.3-.98.48,1.99.68,3.16,2.18,3.16,4.04,0,3.67-3.85,6.22-9.36,6.22-.81,0-1.19,0-2.21-.14l-.84-2.46c.81.15,1.17.18,2.02.18,3.7,0,6.22-1.68,6.22-4.08,0-.89-.42-1.71-1.17-2.03-.52-.22-1.31-.32-2.47-.32-.35,0-.98,0-1.35.02v-2.98"/>
  <path class="cls-13" d="M135.14,260.76c.65.07,1.22.11,1.84.11,1.96,0,2.95-.69,2.95-2.1,0-1.15-.72-1.99-2.26-1.99-1.79,0-3.14.82-3.93,1.49l-1.86-2.27c.72-.54,1.62-1.08,2.47-1.42,1.22-.5,2.52-.81,3.8-.81,3.31,0,5.74,1.97,5.74,4.64,0,1.42-.61,2.73-1.75,3.41-.35.22-.52.3-.98.48,1.99.68,3.15,2.18,3.15,4.04,0,3.67-3.86,6.22-9.35,6.22-.83,0-1.2,0-2.2-.14l-.86-2.46c.83.15,1.18.18,2.03.18,3.69,0,6.22-1.68,6.22-4.08,0-.89-.44-1.71-1.18-2.03-.5-.22-1.29-.32-2.47-.32-.34,0-.98,0-1.36.02v-2.98"/>
  <path class="cls-13" d="M157.37,251.12c-2.71.87-5.66,2.41-6.91,6.14.71-.59,1.7-.89,2.85-.89,3.21,0,5.7,2.45,5.7,5.62,0,3.42-2.72,6.05-6.22,6.05-3.89,0-6.67-3.12-6.67-7.5,0-1.29.23-2.67.68-3.82.59-1.51,1.64-3.05,2.98-4.29,1.57-1.5,4.63-3.22,6.84-3.87l.76,2.55M149.97,261.72c0,2.26.98,3.57,2.62,3.57s2.65-1.27,2.65-3.26c0-1.71-.94-2.79-2.43-2.79-.86,0-1.7.26-2.75.88-.07.32-.09.97-.09,1.59Z"/>
  <path class="cls-13" d="M45.12,196.65v9.14c0,.87.07,1.36.24,1.66.31.62.97.96,1.9.96,1.22,0,2-.61,2.12-1.63.04-.29.04-.49.04-1.23v-8.91h2.85v9.35c0,1.32-.02,1.59-.23,2.19-.36,1.1-1.72,2.61-4.72,2.61-2.13,0-3.69-.63-4.46-1.85-.46-.73-.6-1.28-.6-2.62v-9.68h2.87"/>
  <path class="cls-13" d="M56.91,200.06c.24.41.39.86.39,1.27.39-.27.73-.52,1.18-.75.54-.29,1.23-.45,1.83-.45,1.14,0,2.14.6,2.46,1.49.14.37.21.82.21,1.45v7.49h-2.64v-6.67c0-1.16-.2-1.5-.9-1.5-.54,0-1.24.36-1.86.91v7.25h-2.68v-7.43c0-.88-.12-1.72-.36-2.4l2.37-.67"/>
  <path class="cls-13" d="M68.37,197.49c0,.91-.74,1.66-1.66,1.66s-1.64-.75-1.64-1.66.76-1.66,1.68-1.66,1.62.74,1.62,1.66M68.05,200.07v10.49h-2.68v-10.07l2.68-.42Z"/>
  <path class="cls-13" d="M71.59,200.13l1.49,4.62c.22.69.52,1.79.66,2.46.07-.6.3-1.58.61-2.59l1.38-4.31h2.81l-3.74,10.25h-2.22l-3.72-10.09,2.74-.34"/>
  <path class="cls-13" d="M87.49,209.42c-1.18.94-2.41,1.41-3.86,1.41-2.94,0-4.85-2.09-4.85-5.3,0-1.84.38-3.07,1.28-4.05.84-.96,1.86-1.38,3.22-1.38,1.19,0,2.3.4,2.96,1.08.93.96,1.35,2.34,1.35,4.48v.62h-5.92v.08c0,1.57.79,2.47,2.16,2.47.93,0,1.78-.34,2.6-1.02l1.04,1.62M84.84,204.3v-.12c0-.76-.08-1.16-.32-1.54-.26-.4-.64-.61-1.18-.61-1.02,0-1.61.81-1.61,2.23v.04h3.11Z"/>
  <path class="cls-13" d="M91.33,200.07c.24.42.38.87.42,1.45.38-.52,1.02-1.08,1.52-1.3.22-.09.57-.15.87-.15.41,0,.59.05,1.01.21l-.74,2.37c-.26-.14-.48-.21-.78-.21-.6,0-1.14.29-1.64.87v7.25h-2.68v-6.86c0-1.37-.16-2.41-.39-3l2.4-.63"/>
  <path class="cls-13" d="M102.12,202.79c-1.02-.52-1.76-.75-2.52-.75s-1.31.4-1.31,1.02c0,.52.35.79,1.28,1.03l1.24.32c1.26.32,1.68.7,2.04,1.16.39.49.56,1.07.56,1.73,0,2.12-1.76,3.56-4.38,3.56-1.26,0-2.64-.39-4.14-1.17l.96-1.96c.81.49,2.24,1.15,3.4,1.15.77,0,1.37-.49,1.37-1.15,0-.7-.5-1.07-1.58-1.27l-1.2-.22c-.69-.12-1.52-.6-1.89-1.03-.36-.45-.57-1.18-.57-1.85,0-2,1.58-3.34,3.96-3.34,1.65,0,2.72.49,3.66.96l-.88,1.8"/>
  <path class="cls-13" d="M108.09,197.49c0,.91-.74,1.66-1.66,1.66s-1.64-.75-1.64-1.66.76-1.66,1.68-1.66,1.62.74,1.62,1.66M107.77,200.07v10.49h-2.68v-10.07l2.68-.42Z"/>
  <path class="cls-13" d="M114.43,202.15h-1.72v5.13c0,1.3.24,1.64,1.17,1.64.24,0,.48-.05.96-.2l.33,1.59c-.78.33-1.48.47-2.18.47-1.36,0-2.44-.61-2.76-1.5-.16-.45-.18-.64-.18-1.58v-5.55h-1.02v-1.85h1.02c0-1,0-1.65.11-2.41l2.71-.68c-.09.94-.16,2.05-.16,3.09h2.4l-.69,1.85"/>
  <path class="cls-13" d="M117.76,200.69c1-.42,1.86-.6,2.79-.6,1.73,0,2.9.63,3.3,1.77.15.42.21.75.18,1.84l-.06,3.45v.18c0,1.11.18,1.52.96,2.1l-1.41,1.65c-.63-.27-1.18-.73-1.44-1.25-.18.21-.42.41-.63.54-.49.37-1.21.56-2.05.56-2.28,0-3.53-1.16-3.53-3.19,0-2.41,1.67-3.53,4.92-3.53.21,0,.32,0,.6.02v-.42c0-1.14-.22-1.52-1.2-1.52-.85,0-1.86.42-2.95,1.16l-1.14-1.92c.48-.29.94-.54,1.66-.83M121.87,199.41l-4.48-1.99,1.17-2.1,4.14,2.61-.83,1.48ZM121.24,206.07c-1.86,0-2.5.35-2.5,1.56,0,.81.49,1.35,1.17,1.35.5,0,1-.27,1.41-.71l.04-2.19h-.12Z"/>
  <path class="cls-13" d="M138.71,206.81c0,2.52.21,3.34.39,3.75h-2.41c-.07-.18-.12-.33-.15-.62-.66.59-1.44.87-2.37.87-2.59,0-4.24-2.02-4.24-5.19s1.78-5.4,4.38-5.4c.74,0,1.32.19,1.82.57-.05-.21-.08-.93-.08-1.52v-3.52l2.66.42v10.64M134.64,202.34c-1.2,0-1.73,1.01-1.73,3.28s.47,2.93,1.86,2.93c.5,0,1.07-.34,1.32-.66v-4.9c-.49-.42-.97-.66-1.45-.66Z"/>
  <path class="cls-13" d="M144.32,197.49c0,.91-.75,1.66-1.66,1.66s-1.64-.75-1.64-1.66.76-1.66,1.69-1.66,1.62.74,1.62,1.66M143.99,200.07v10.49h-2.68v-10.07l2.68-.42Z"/>
  <path class="cls-13" d="M158.43,199.34c-.69-.52-1.43-.77-2.23-.77-.93,0-1.85.45-2.36,1.2-.54.81-.79,1.97-.79,3.59,0,1.9.18,2.95.59,3.71.57,1.02,1.48,1.57,2.68,1.57.83,0,1.56-.25,2.38-.9l1.29,1.76c-1.11.89-2.3,1.3-3.87,1.3-1.91,0-3.4-.62-4.55-1.91-1.1-1.27-1.68-2.95-1.68-4.99,0-1.73.29-3.12.95-4.32,1.08-2.03,3.07-3.22,5.32-3.22,1.38,0,2.75.45,3.52,1.1l-1.27,1.9"/>
  <path class="cls-13" d="M162.39,200.69c1-.42,1.86-.6,2.79-.6,1.73,0,2.91.63,3.33,1.77.12.42.19.75.16,1.84l-.05,3.45v.18c0,1.11.18,1.52.96,2.1l-1.43,1.65c-.61-.27-1.17-.73-1.45-1.25-.19.21-.41.41-.61.54-.49.37-1.22.56-2.06.56-2.27,0-3.52-1.16-3.52-3.19,0-2.41,1.66-3.53,4.92-3.53.19,0,.37,0,.59.02v-.42c0-1.14-.21-1.52-1.18-1.52-.86,0-1.87.42-2.96,1.16l-1.14-1.92c.54-.34.93-.54,1.65-.83M165.87,206.07c-1.86,0-2.5.35-2.5,1.56,0,.81.5,1.35,1.17,1.35.52,0,1.01-.27,1.41-.71l.05-2.19h-.13Z"/>
  <path class="cls-13" d="M173.2,200.13c.18.29.26.52.35,1.04.71-.68,1.57-1.04,2.51-1.04.84,0,1.55.29,2.09.83.14.15.27.33.4.52.94-.96,1.78-1.35,2.89-1.35.81,0,1.56.23,2.02.64.6.49.77,1.09.77,2.5v7.29h-2.61v-6.77c0-1.21-.14-1.45-.83-1.45-.5,0-1.21.34-1.77.86v7.37h-2.55v-6.67c0-1.28-.18-1.58-.91-1.58-.49,0-1.18.27-1.76.79v7.46h-2.62v-7.14c0-1.5-.09-2.13-.37-2.64l2.41-.66"/>
  <path class="cls-13" d="M194.62,209.42c-1.18.94-2.41,1.41-3.86,1.41-2.94,0-4.85-2.09-4.85-5.3,0-1.84.39-3.07,1.28-4.05.84-.96,1.87-1.38,3.22-1.38,1.18,0,2.31.4,2.96,1.08.94.96,1.36,2.34,1.36,4.48v.62h-5.92v.08c0,1.57.79,2.47,2.17,2.47.91,0,1.77-.34,2.6-1.02l1.03,1.62M191.96,204.3v-.12c0-.76-.08-1.16-.32-1.54-.27-.4-.63-.61-1.18-.61-1.02,0-1.61.81-1.61,2.23v.04h3.11Z"/>
  <path class="cls-13" d="M198.45,200.07c.25.42.39.87.42,1.45.39-.52,1.02-1.08,1.52-1.3.22-.09.57-.15.88-.15.4,0,.59.05,1.01.21l-.75,2.37c-.26-.14-.47-.21-.77-.21-.61,0-1.15.29-1.64.87v7.25h-2.68v-6.86c0-1.37-.15-2.41-.39-3l2.4-.63"/>
  <path class="cls-13" d="M206.13,197.49c0,.91-.73,1.66-1.64,1.66s-1.65-.75-1.65-1.66.76-1.66,1.68-1.66,1.62.74,1.62,1.66M205.82,200.07v10.49h-2.7v-10.07l2.7-.42Z"/>
  <path class="cls-13" d="M210.28,200.06c.23.41.37.86.37,1.27.4-.27.75-.52,1.18-.75.54-.29,1.25-.45,1.84-.45,1.15,0,2.14.6,2.46,1.49.14.37.2.82.2,1.45v7.49h-2.64v-6.67c0-1.16-.19-1.5-.9-1.5-.54,0-1.23.36-1.86.91v7.25h-2.67v-7.43c0-.88-.12-1.72-.36-2.4l2.38-.67"/>
  <path class="cls-13" d="M226.07,201.65c.81.96,1.17,2.07,1.17,3.74,0,1.76-.41,2.95-1.29,3.95-.77.89-1.8,1.43-3.37,1.43-2.78,0-4.59-2.09-4.59-5.31s1.83-5.34,4.59-5.34c1.45,0,2.6.49,3.49,1.54M221.24,203.13c-.19.54-.29,1.25-.29,2.29,0,1.17.13,2.06.35,2.58.25.56.83.83,1.35.83,1.17,0,1.66-1.03,1.66-3.46,0-1.38-.16-2.27-.53-2.74-.27-.34-.69-.53-1.16-.53-.66,0-1.17.39-1.38,1.03Z"/>
  <polyline class="cls-16" points="136.27 122.86 136.27 124.24 135.29 124.24 135.29 125.04 136.25 125.04 136.25 126.9 136.95 126.9 136.95 125.04 137.89 125.04 137.89 124.24 136.98 124.24 136.98 122.79 136.27 122.86"/>
  <path class="cls-8" d="M118.33,107.68s-.39,1.51-.33,2.44c0,0-.11.98,1.07,2.87,0,0-.05,1.49,1.1,2.93,0,0,1.02,1.31,1.54,1.72,0,0,.97.7,2.48,1.04,0,0,.32.08.52.24,0,0,1.42,1.09,2.2,1.35,0,0,1.6,1.18,5.6.57,0,0,.44.63,1.38.96,0,0,2.15.87,2.38,1.39l.77.05s.59-.62,1.32-.89c0,0,1.62-.36,2.24-1.29,0,0,2.71.31,3.8,0,0,0,2.7-.77,4.04-2.51,0,0,1.93.25,3.93-1.68,0,0,1.38-1.12,1.69-4.54,0,0,1.52-1.97.37-4.75l-4.38,4.54s-1.08,2.66-1.23,3.5c0,0-4.65.83-6.43,2.79,0,0-2.53-.42-3.42-.16,0,0-1.4.52-2.24,1.72,0,0-2.31-2.95-5.95-1.96,0,0-2.67-2.14-6.48-2.33l-1.12-2.76-4.81-5.26"/>
  <path class="cls-1" d="M118.7,109.12s-.42,1.85.63,3.31c0,0,.4.55,1.49.97l2.22.83-.67-1.51-3.3-3.71-.36.11"/>
  <path class="cls-1" d="M120.5,115.54s1.59.53,3.15.57c0,0,2.41.15,2.93.26,0,0,1.88.46,2.53,1.18,0,0-2.09-.09-2.29-.03,0,0-2.06.31-2.48.41,0,0-1.57-.1-2.17-.54,0,0-1.22-.87-1.66-1.86"/>
  <path class="cls-1" d="M126.83,119.56s3.29-.94,4-1.25c0,0,2.62-.81,4.91,1.25,0,0-2.72.7-3.13.86,0,0-3.87,1-5.77-.86"/>
  <path class="cls-1" d="M137.35,120s.78-1.25,2.24-1.45c0,0,1.52.08,2.46.36,0,0,2.4,1.04,3.74.91,0,0-.71.82-1.99.89,0,0-2.59.02-3.02-.15,0,0-.76-.39-3.42-.56"/>
  <path class="cls-1" d="M144.26,117.49s2.12-.87,3.41-1.14c0,0,4.22-.21,5.34-1.79,0,0-.16,2-2.39,3,0,0-1.1.67-4.01.42,0,0-1.68-.26-2.36-.48"/>
  <path class="cls-1" d="M154,108.1s.59,1.35.45,2.4c0,0-.26,1.35-1.07,2.09,0,0-3.13,1.86-3.53,1.97-.4.09.87-2.38,1.02-2.57.15-.18.27-.67.27-.67l2.16-2.46.7-.75"/>
  <path class="cls-5" d="M97.52,83.39s1.57,4.41,4.29,7.01c0,0,3.53,3.29,3.78,3.91,0,0,1.83,1.84,1.83,5.37,0,0,.12,2.4-1.33,3.98,0,0-.12-.82-.56-.82,0,0-.64-.07-.76.26,0,0-1.39.06-2.09.81l-11.67-24.31-3.6-3.01v4.21l11.62,24.67s-1.26.59-1.76,1.26c0,0-3.29-1.43-4.21-2.52,0,0,.76,2.77,2.35,4.71,0,0-2.52.77-3.19.69,0,0,2.53,2.35,7.58,2.35,0,0,3.37.08,6.48-2.95,0,0,3.29-3.19,3.37-8.41,0,0,0-4.89-2.27-9.43,0,0-4.89-9.33-4.62-11.72,0,0-.18-7.27,3.53-11.14,0,0,2.6-2.48,7.24-3.4,0,0,8.66-1.6,11.11-2.61,0,0,8.24-2.11,10.78-10.69,0,0,2.36,6.73,8.59,9.52,0,0,3.12,1.93,8.58,2.77,0,0,8.16,1.2,13.48,4.87,0,0,3.66,2.75,3.12,9.61,0,0-1.1,6.06-3.02,9.5,0,0-3.21,6.25-3.37,9.43,0,0-.84,5.14,1.68,9.1,0,0,2.61,4.21,6.83,4.8,0,0,5.64,1.01,9-2.37,0,0-2.6-.25-3.19-.75,0,0,2.09-3.11,2.09-4.89,0,0-4.03,4.46-8.58,2.78,0,0-5.65-.93-5.73-7.57,0,0-.34-3.37,3.37-6.49,0,0,4.79-4.59,5.96-8.67,3.6-12.46-9.9-20.74-9.9-20.74,0,0-3.89-3.6-15.69-3.77,0,0,4.38-.84,6.91-7.4,0,0,2.11-5.64,3.61-6.66,0,0,.94-1.01,3.89.52,0,0,3.45,2.35,2.34,5.89,0,0-1.09,4.03-4.11,4.38l3.86.42s-.42,3.11-1.43,4.03c0,0,5.39-2.27,6.23-6.4,0,0,1.44-4.88-1.51-8.33,0,0-1.51-2.37-4.55-3.12,0,0-4.72-1.53-8.85,3.28,0,0-1.12,1.21-4.36,6.82,0,0-1.86,3.37-5.06,3.29,0,0-3.2.08-4.38-2.36,0,0,1.78,0,1.95-1.51,0,0,1.16-.22.59-.97,0,0,.75-.12.82-1.14l1.32-1.32s.5-.45,1.08-.56l-.19-.52s2.26-3.09,1.51-5.37c0,0-.37-2.46-2.72-2.71,0,0-2.65.13-4.48-.38,0,0-1.52-.88-3.53-1.01,0,0,.19-1.83-1.71-2.03v-.69h.63v.44h.69v-1.55h-.68v.41h-.64v-.7h.63v-.76h-1.9v.76h.57v.7h-.57v-.41h-.69v1.55h.69v-.44h.57v.7s-1.45.12-1.58,1.95c0,0-2.96.7-3.97,1.2,0,0-3.29.56-4.43.39,0,0-2.33.37-2.33,3.59,0,0-.07,2.78,1.65,4.49l-.13.5s.31,0,1.08.63c0,0,.69.95,1.51,1.27,0,0-.25.5.57,1.01,0,0-.12.76.63.88,0,0-.19,1.01,1.71,1.71,0,0-1.08,2.59-4.29,2.21,0,0-3.86.13-7.39-7.39,0,0-1.88-3.6-5.92-5.17,0,0-4.49-1.45-7.2.5,0,0-3.41,1.96-4.11,6.45,0,0-.88,7.7,6.95,10.29l-1.71-4.11,3.91-.56s-4.74-1.45-4.29-6.25c0,0,.25-3.72,4.86-4.67,0,0,1.08-.13,1.71.57l1.27,1.89,1.7,3.54s1.38,3.66,2.96,5.17c0,0,1.45,2.02,4.48,2.96,0,0-7.32-.06-12.37,2.59,0,0-16.1,7-12.87,22.17"/>
  <path class="cls-16" d="M142.03,55.03s1.97,2.98,2.65,3.54c0,0,2.34.19,3.94-.39,0,0,3.21-.76,5.23-4.54,0,0,2.4-5.55,3.16-6.95.76-1.39,2.84-3.73,3.79-3.86,0,0-2.33-.14-5.36,2.89,0,0-2.74,3.67-3.8,5.82,0,0-.82,2.2-3.29,3.6,0,0-1.07,1.01-3.02.95,0,0-2.02-.19-3.29-1.08"/>
  <path class="cls-16" d="M129.28,54.85s-1.51,3.09-2.52,3.6c0,0-3.6.25-5.5-1.08,0,0-3.28-1.76-4.48-4.86,0,0-2.72-5.81-2.98-6.25,0,0-1.45-2.34-3.34-3.15,0,0,2.08,0,4.48,1.96,0,0,2.34,1.96,4.05,5.68,0,0,1.14,2.27,2.96,3.66,0,0,1.08,1.32,3.86,1.45,0,0,.88.37,3.47-1.01"/>
  <path class="cls-16" d="M145.94,59.65s4.99-.57,9.16.06c0,0,4.79.56,8.84,3.97,0,0,3.66,2.98,4.62,4.61,0,0-3.91-2.2-5.88-2.77,0,0-4.35-1.26-5.8-1.51,0,0-3.29-.44-4.86-.94,0,0-4.55-1.71-6.07-3.41"/>
  <path class="cls-16" d="M125.5,59.46s-5.24-.57-9.47.37c0,0-3.98.77-7.34,3.04,0,0-2.84,2.21-5.75,5.75,0,0,2.4-1.71,5.19-2.65,0,0,4.8-1.52,6.12-1.78,0,0,4.61-.81,5.81-1.38,1.2-.57,2.9-1.01,5.44-3.35"/>
  <path class="cls-16" d="M94.49,105.74s1.39,1.96,5.75,1.76c0,0,3.15,0,5.11-2.15,0,0,3.04-2.65,3.66-6.81,0,0,.69,2.91-1.01,6.95,0,0-.82,2.77-3.86,4.48,0,0-1.51,1.08-4.66,1.45,0,0-3.6-.06-5.69-1.51,0,0,1.58-.25,2.47-.89,0,0-1.65-1.82-1.78-3.28"/>
  <path class="cls-16" d="M163.32,97.91s.18,4.29,4.23,7.58c0,0,1.01,1.28,5.31,1.6,0,0,3.9-.53,5.1-1.79,1.2-1.26-1.83,3.1-1.83,3.1l2.72.87s-2.59,1.9-6.56,1.45c0,0-3.66-.25-5.94-2.84,0,0-3.91-3.66-3.02-9.97"/>
  <path class="cls-16" d="M126.5,39.76s-1.51-.62-2.85,1.39c0,0-.62,1.7,0,3.47,0,0,.76,2.09,1.78,2.84,0,0,.43.19.76-.31,0,0,.7-.39,1.2.25,0,0,.63,0,.25.5-.07.31-.25.06-.25.06l-.07-.25s-.5-.06-.5.39c0,0,.19.5.57.5,0,0,.88-.06.95-.76,0,0-.13.06-.57-.76-.45-.82.06-.94-.45-1.89,0,0-1.2-4.04-.81-5.44"/>
  <path class="cls-11" d="M125.24,42.15c.44,0,.8-.36.8-.81s-.36-.8-.8-.8-.81.36-.81.8.36.81.81.81"/>
  <path class="cls-16" d="M125.17,41.67c.18,0,.33-.16.33-.33s-.15-.32-.33-.32-.32.14-.32.32.15.33.32.33"/>
  <path class="cls-11" d="M125.94,46.69c.45,0,.81-.37.81-.8,0-.46-.36-.8-.81-.8s-.8.35-.8.8c0,.43.36.8.8.8"/>
  <path class="cls-16" d="M125.87,46.2c.18,0,.32-.14.32-.31,0-.18-.14-.32-.32-.32s-.32.14-.32.32c0,.17.14.31.32.31"/>
  <polyline class="cls-11" points="124.99 42.66 126.25 43.55 125.5 44.94 124.1 44.17 124.99 42.66"/>
  <path class="cls-16" d="M144.72,39.7s1.48-.67,2.88,1.29c0,0,.68,1.68.12,3.47,0,0-.7,2.12-1.69,2.9,0,0-.42.21-.75-.28,0,0-.7-.36-1.2.28,0,0-.63.03-.23.52.07.31.26.05.26.05l.05-.25s.49-.07.52.37c0,0-.16.51-.54.52,0,0-.89-.04-.98-.73,0,0,.13.06.54-.77.42-.84-.09-.95.37-1.91,0,0,1.08-4.08.66-5.46"/>
  <path class="cls-11" d="M146.06,42.04c-.45.03-.81-.32-.83-.77-.01-.45.34-.81.79-.84.43-.01.81.33.82.78.01.45-.33.81-.77.83"/>
  <path class="cls-16" d="M146.1,41.56c-.18,0-.32-.13-.33-.32,0-.18.13-.32.3-.33.19,0,.33.15.34.31,0,.18-.13.34-.32.34"/>
  <path class="cls-11" d="M145.52,46.61c-.45.01-.82-.34-.84-.79,0-.44.35-.81.79-.83.45-.01.82.34.83.78.01.45-.34.82-.77.83"/>
  <path class="cls-16" d="M145.56,46.12c-.18.01-.33-.13-.33-.3s.13-.33.3-.33c.19,0,.33.13.33.31.01.18-.12.33-.3.33"/>
  <polyline class="cls-11" points="146.33 42.56 145.1 43.48 145.89 44.84 147.26 44.04 146.33 42.56"/>
  <path class="cls-17" d="M141.36,39.32s.29,2.98-.81,4.91M129.97,39.31s-.37,2.98.7,4.93M144.31,39.54s0,4.17-1.32,6.34M127.2,39.76s-.13,4.17,1.14,6.39"/>
  <path class="cls-16" d="M127.76,39.5h1.51s.07,3.79.88,5.24c0,0,.25,1.07-.63,1.2,0,0-.5.95.32,1.01,0,0,.56-.56.76,0,0,0,.7.81-.64,1.01,0,0-1.01-.19-.94-1.07,0,0-.06-.5-.32-1.27,0,0-1.51-3.22-.94-6.12"/>
  <polyline class="cls-11" points="128.57 42.24 129.3 42.74 128.85 43.54 128.07 43.11 128.57 42.24"/>
  <path class="cls-16" d="M143.45,39.42l-1.51-.04s-.14,3.79-.98,5.23c0,0-.27,1.07.62,1.2,0,0,.47.96-.34,1.01,0,0-.57-.57-.76-.01,0,0-.7.81.61,1.02,0,0,1.01-.16.96-1.05,0,0,.07-.5.34-1.26,0,0,1.58-3.19,1.07-6.09"/>
  <polyline class="cls-11" points="142.59 42.13 141.87 42.63 142.28 43.42 143.08 43.01 142.59 42.13"/>
  <path class="cls-9" d="M132.31,42.1s-.31-2.53-1.01-3.04c0,0-.39-.32-.56.19,0,0-.19,1.65,0,2.78.18,1.13,1.57.06,1.57.06"/>
  <path class="cls-9" d="M134.4,42.1s.01-1.43-.07-2.21c-.07-.78-.43-1.02-.63-1.2,0,0-.5-.33-.57.12,0,0-.37,1.78-.25,2.98.13,1.19,1.52.32,1.52.32"/>
  <path class="cls-2" d="M130.25,41.53l4.73-.31s.52,5.69-1.13,6.13l-.13-1.33-.44.06.07,1.2s-2.15-.56-3.09-5.75"/>
  <path class="cls-9" d="M138.91,41.96s.26-2.53.95-3.05c0,0,.37-.32.57.18,0,0,.21,1.63.05,2.77-.15,1.14-1.57.09-1.57.09"/>
  <path class="cls-9" d="M136.82,42.01s-.07-1.55.02-2.21c.09-.67.46-1.02.65-1.21,0,0,.45-.33.53.11,0,0,.42,1.76.31,2.96-.09,1.2-1.51.35-1.51.35"/>
  <path class="cls-2" d="M140.99,41.43l-4.75-.22s-.39,5.69,1.26,6.09l.09-1.33.45.06-.04,1.2s2.14-.61,2.98-5.81"/>
  <polyline class="cls-16" points="134.9 39.57 136.22 39.57 135.97 40.71 135.97 44.36 135.21 44.35 135.24 40.74 134.9 39.57"/>
  <path class="cls-16" d="M127.64,50.06s7.26-3.86,15.84-.13l-.69.32.07.88s-7.2-2.78-14.4.25l.06-.88-.88-.44"/>
  <path class="cls-11" d="M129.4,50.54c.24,0,.43-.19.43-.43s-.19-.43-.43-.43-.43.19-.43.43.19.43.43.43"/>
  <path class="cls-11" d="M141.85,50.54c.25,0,.43-.19.43-.43s-.19-.43-.43-.43-.45.19-.45.43.2.43.45.43"/>
  <polyline class="cls-11" points="135.37 48.47 136.09 48.97 135.66 49.76 134.87 49.33 135.37 48.47"/>
  <polyline class="cls-11" points="139.69 49.1 140.27 49.49 139.92 50.13 139.29 49.78 139.69 49.1"/>
  <polyline class="cls-11" points="131.24 49.12 131.82 49.52 131.47 50.16 130.85 49.81 131.24 49.12"/>
  <path class="cls-11" d="M137.62,49.74c.24,0,.45-.19.45-.43s-.21-.43-.45-.43-.43.19-.43.43.19.43.43.43"/>
  <path class="cls-11" d="M133.33,49.79c.24,0,.43-.19.43-.43s-.19-.43-.43-.43-.43.19-.43.43c0,.25.19.43.43.43"/>
  <path class="cls-5" d="M128.67,70.24s7.42-2.61,14.38-.22c0,0,.59-2.87,1.55-3.31,0,0,.54-.31.83.15,0,0,.22-.55-.13-.88,0,0,.91-.84.87-1.69,0,0-.12-1.9-1.83-2.33l-2.53-.05s-.63-1.01-1.73-1.08l-2.19-.05s.73-1.28-.47-1.86l-1.4-.76v-1.18h.44v-.56h-.47v-.53h-.58v.55h-.47v.54h.45v1.15l-1.38.84s-1.02.45-.45,1.82l-2.05.1s-1.71.32-1.73,1.08h-2.36s-2.02.29-2.06,2.33c0,0,.07,1.54.76,1.69,0,0-.26.56-.11.91,0,0,.39-.49.88-.18,0,0,1.44,1,1.78,3.5"/>
  <path class="cls-11" d="M134.53,60.58c.3,0,.55-.26.55-.56s-.25-.55-.55-.55c-.32,0-.57.24-.57.55s.25.56.57.56"/>
  <path class="cls-11" d="M136.9,60.56c.3,0,.55-.26.55-.56s-.25-.56-.55-.56-.56.25-.56.56.25.56.56.56"/>
  <path class="cls-16" d="M128.81,68.28l.37,1.2s5.58-2.24,13.46-.26l.27-1.12s-6.97-2.19-14.1.19"/>
  <path class="cls-8" d="M129.49,62.95s-1.39-.13-2.2.47c0,0-.81.65-.76,1.67,0,0-.29.73,1.33,1.2l.25.02.04.64s-.19,0-.15.2c0,0,0,.13.2.24,0,0,.97.38,1.13-.24,0,0,.07-.87-.5-.97,0,0-.05-.8.5-.8,0,0,.7.05.47.86,0,0-.18.6.07.76,0,0,.76.45,1.11-.24v-.33s-.71.21-.76-.49c0,0,.02-.63.36-.69,0,0-1.22-1.93-1.09-2.29"/>
  <path class="cls-8" d="M141.95,62.74s1.37-.22,2.23.34c0,0,.84.6.84,1.62,0,0,.34.71-1.24,1.28l-.26.04v.63s.19-.01.16.2c0,0,.02.13-.19.26,0,0-.94.45-1.14-.17,0,0-.13-.86.45-1,0,0,0-.81-.55-.78,0,0-.7.09-.41.88,0,0,.22.59-.04.77,0,0-.73.48-1.1-.16l-.02-.35s.71.17.71-.54c0,0-.06-.62-.41-.64,0,0,1.12-2,.96-2.37"/>
  <path class="cls-8" d="M135.18,61.82s-2.68-.28-3.42-.02c0,0-1.93,1.25-.32,2.58l.18.66s1.26.6,0,1.12c0,0,.69,1.44,1.62-.07,0,0,0-.53-.34-.71,0,0-.18-.84.47-.87,0,0,.71-.09.33.97,0,0,.22,1.69,1.6.54,0,0-.4.04-.55-.52,0,0,.02-.53.33-.66,0,0-.12-2.73.08-3.02"/>
  <path class="cls-8" d="M136.4,61.79s2.69-.25,3.42.01c0,0,1.91,1.29.28,2.6l-.2.64s-1.26.59-.02,1.13c0,0-.7,1.43-1.61-.11,0,0,0-.52.35-.7,0,0,.19-.82-.46-.86,0,0-.71-.12-.36.96,0,0-.23,1.69-1.6.53,0,0,.39.02.56-.52,0,0-.01-.53-.33-.66,0,0,.17-2.73-.04-3.02"/>
  <path class="cls-11" d="M131.27,68.61c.18,0,.32-.15.32-.33s-.15-.33-.32-.33c-.19,0-.34.15-.34.33s.15.33.34.33"/>
  <path class="cls-11" d="M137.6,68.14c.19,0,.33-.15.33-.34,0-.18-.14-.32-.33-.32-.18,0-.32.15-.32.32,0,.19.14.34.32.34"/>
  <path class="cls-11" d="M140.5,68.53c.19,0,.34-.15.34-.33s-.15-.34-.34-.34c-.18,0-.33.16-.33.34s.15.33.33.33"/>
  <path class="cls-11" d="M134.16,68.22c.18,0,.34-.15.34-.33s-.16-.34-.34-.34-.33.16-.33.34.16.33.33.33"/>
  <rect class="cls-11" x="135.31" y="67.55" width="1.04" height=".44"/>
  <rect class="cls-11" x="138.55" y="67.66" width="1.04" height=".45"/>
  <rect class="cls-11" x="141.46" y="68.21" width="1.05" height=".45"/>
  <rect class="cls-11" x="132.18" y="67.76" width="1.05" height=".45"/>
  <rect class="cls-11" x="129.28" y="68.39" width="1.04" height=".44"/>
  <polyline class="cls-13" points="88.17 78.15 89.91 79.75 100.42 101.47 100.35 102.32 89.52 80.2 88.96 80.48 100.58 104.31 100.86 105.15 100.15 105.22 88.45 80.45 88.17 78.15"/>
  <path class="cls-5" d="M104.36,114.89c-.11-1.13-.11-.05-.11-.05"/>
  <path class="cls-5" d="M104.26,114.84s-.57-.08-.63-1.46c0,0-.91-.5-.76-2.04l-.07-.42,1.64-.84.32.11.18.24s.6.31.84.57c.23.25.23.73.18,1.07,0,0,.71.38.79,1.2,0,0,.91.45.76,1.75,0,0,.86,1.72-.42,2.24,0,0-1.51.71-1.93-1.26,0,0-.67,0-.78-1.11"/>
  <path class="cls-13" d="M103.63,110.87s1.6.31,1.83.47l.03.57-1.73-.02s-.63-.4-.49-.73c.13-.35.36-.29.36-.29"/>
  <path class="cls-13" d="M104.29,113.58l1.98.15s.73.26.73.97l-2.09-.11s-.97-.42-.62-1.02"/>
  <path class="cls-13" d="M106.4,116.88c.47,0,.86-.37.86-.84s-.39-.85-.86-.85-.85.39-.85.85.38.84.85.84"/>
  <path class="cls-5" d="M106.4,116.54c.28,0,.5-.23.5-.5s-.23-.52-.5-.52-.5.23-.5.52.23.5.5.5"/>
  <polyline class="cls-13" points="104.89 114.96 105.76 115.04 105.33 115.56 104.94 115.41 104.89 114.96"/>
  <path class="cls-13" d="M103.63,112.25s2.2.34,2.41.42c0,0,.38.42.23.73l-1.78-.09s-.91-.31-.87-1.07"/>
  <path class="cls-3" d="M116.28,78.72c.38.05.78.87.78.87v2.64c-.63.7,0,.96,0,.96l.02,2.64c-.05.67-.71.81-.71.81h-1.22l.26.63,1.72-.68-.7,1.46,1.54.67-1.44.6.71,1.52-1.8-.79.02.84c.79.13,1.6.73,1.6.73.31.97-.42,3.02-.42,3.02-.49.42-.36.77-.36.77.52,1.85-.79,3.31-.79,3.31l-1.41.13.16.7,1.82-.65-.87,1.59,1.86.94-1.91.37.71,1.62-1.62-.79-.03.66.94.05c.36.03.71.65.71.65l-.02,2.62c-.61.81.02,1.35.02,1.35,0,0,.05,1.78.02,2.28-.02.49-.45,1.41-.45,1.41l1.93-.08-1.44,1.37,1.49,1.14,1.07,2.61c-.34.87.42.84.42.84.69.6,1.62,4.15,1.62,4.15l1.51-.55-.36,1.44,1.31.05-1.39,1.24.37.45.16-.22.89-.95c.33-.25,1.09.04,1.09.04l1.89,1.45c.31.26.05.77.05.77.19-.11.88.07.88.07l1.78,1.33,1.73,1.46,1.07-1.57.06,2.06.91-.05c.03-1,.6-.8.6-.8l2.76-.04c.4,0,.5.42.5.42.02-.52.67-.7.67-.7l2.72-.03c.49-.02.64.79.64.79l.89.05-.06-1.86,1.25,1.28,1.49-1.44s1.42-1.05,1.73-1.22c.3-.18.94-.11.94-.11-.07-.46.02-.7.02-.7,1.43-1.46,2.46-1.65,2.46-1.65.62-.02,1.5,1.12,1.5,1.12l.42-.44-1.66-1,1.71-.29-.37-1.43,1.29.57c.19-.15.61-2.02.61-2.02.86-2.43,1.59-2.29,1.59-2.29-.39-.4-.21-1.02-.21-1.02l1.08-2.33,1.41-1.07-.96-1.22,2.11.16.02-.66-.61-.05c-.37.02-.47-.53-.47-.53l-.02-2.62c.71-.4-.11-1.46-.11-1.46l.04-2.2c0-.71.68-.89.68-.89l1.1-.11-.35-.58-1.49.71.84-1.54-1.89-.44,1.73-.84-.84-1.56,1.88.7-.05-.96c-1.55.21-1.7-.42-1.7-.42-.64-1-.52-3.37-.52-3.37-.83-.58-.97-2.55-.97-2.55-.3-1.36,1.83-1.65,1.83-1.65l-.32-.69-1.59.76.6-1.51-1.43-.6,1.59-.65-.76-1.44,1.86.65.05-.76-1.22-.07c-.8,0-.74-.71-.74-.71v-2.56c.6-.5-.06-1.04-.06-1.04l-.02-2.35c.02-1.22,1.25-1.15,1.25-1.15l-.07-.94-1.32-.23.96-.96-1.58-.97,1.61-.02-.69-1.65,1.77,1.02.54-1.83.54,1.91,2.17-1.02-1.01,1.65,1.84.56-1.5.69,1.17,1.51-1.73-.6v.78c.34,0,1.01.76,1.01.76v3.01c-.54.47.02.86.02.86l-.05,2.58c-.02.42-.74.57-.74.57l-1.18.11-.02.75,1.87-.81-.8,1.67,1.54.53-1.63.73.37,1.57c.94,1.38.71,3.29.71,3.29.25.13.46.73.46.73l.37,2.61c.05.87-1.72,1.04-1.72,1.04l.2.95,1.78-.8-.75,1.71,1.66.6-1.64.6.77,1.54-1.56-.76-.15.97s1.07.05,1.43.05.56.91.56.91l.02,2.17c-.61.88-.09,1.17-.09,1.17l-.02,2.89c.02.79-1.62.69-1.62.69l-.04.64,1.77.11-1.42,1.12,1.15,1.45-1.68-.36-.07,1.78c.02.73-.74,2.27-.74,2.27-.22.5-.76.6-.76.6.19.35,0,.84,0,.84l-1.01,2.25c-.29.47-1.31.2-1.31.2l-.7-.22-.59.77,1.5.87-1.75.45.56,1.75-1.43-.94-.68,1.56-.55-1.82-.52.47c.49.64.13,1.27.13,1.27l-2.04,1.75c-.29.04-.42.12-.42.12,0,.53-.25.64-.25.64l-1.84,1.37c-.39.29-1.21.05-1.21.05l-.98-.96-.63.49,1.31,1.33-1.78-.08.02,1.17-1.22-.75-1.2,1.12v-1.57h-.76s-.06.53-.06.86-.67.58-.67.58l-2.64.05c-.15-.18-.44-.26-.44-.26-.16-.03-.53.5-.53.5,0,0-1.74.16-2.58.16s-1.07-1.44-1.07-1.44l-.69-.05.06,1.46-1.21-1.02-1.07.91-.13-1.33-1.87.13,1.41-1.34-.63-.53-.93,1.05c-.26.24-1.02.02-1.02.02l-2.15-1.54c-.02-.32-.33-.6-.33-.6-.34.08-.73-.15-.73-.15l-1.62-1.42c-.45-.65.06-1.88.06-1.88l-.45-.11-.66,1.71-.64-1.46-1.49.83.52-1.69-1.72-.37,1.49-.98-.58-.76-.84.29c-.65.09-1.04-.13-1.04-.13-1.22-1.44-1.31-3.24-1.31-3.24-1.31-.81-1.67-3.22-1.67-3.22-.02-.11.16-1.41.16-1.41l-1.69.29,1.07-1.44-1.28-1.1,1.8-.08-.07-.65-.97-.13c-.63,0-.8-.8-.8-.8v-2.82c.6-.29-.09-1.07-.09-1.07,0,0-.02-1.9,0-2.29.04-.4.69-.84.69-.84l1.25-.05-.05-.76-1.75.7.91-1.62-1.74-.63,1.72-.62-.83-1.65,1.9.78v-.64c-1.67-.51-1.61-1.11-1.61-1.11-.11-.8.39-3.11.39-3.11.39-.16.29-.41.29-.41-.07-2.12.65-3.48.65-3.48l.37-1.27-1.69-.71,1.61-.66-.94-1.51,1.93.73.02-.67-1.12-.08c-.76-.09-.94-.89-.94-.89v-2.38c.55-.42-.08-.8-.08-.8v-2.99c0-.29,1-.8,1-.8l-.04-.64-1.78.44,1.13-1.44-1.69-.79,1.85-.57-1.02-1.57,2.17.91.62-1.87.6,1.78,1.66-1.04-.67,1.67,2.03-.18-1.76,3.31"/>
  <path class="cls-3" d="M114.44,77.75c.57,0,1.02-.46,1.02-1.01s-.45-1.02-1.02-1.02-1.01.46-1.01,1.02.45,1.01,1.01,1.01Z"/>
  <path class="cls-3" d="M114.91,89.87c.57,0,1.02-.46,1.02-1.03s-.45-1.01-1.02-1.01-1.01.46-1.01,1.01.46,1.03,1.01,1.03Z"/>
  <path class="cls-3" d="M112.64,82.25s.65.09,1.1.07c.44-.02.44-.31.44-.31l-.02-.62h-.42l-.03.44c-.36.42-.57-.02-.57-.02l.04-.88c.21-.5,1.25,0,1.25,0h.26c.94-.63,1.41.23,1.41.23l.02.63c-.41.28-.54-.08-.54-.08l-.08-.45h-.49s-.03.26-.03.57.32.47.32.47h1.02c.36-.02.31-.29.31-.29v-2.04c0-.42-.42-.65-.42-.65h-2.95c-.18,0-.63.4-.63.4l.02,2.53Z"/>
  <path class="cls-3" d="M116.6,83.2s-.65-.11-1.09-.07c-.45.02-.45.31-.45.31l.02.63h.42l.02-.45c.37-.42.57.02.57.02l-.02.88c-.21.49-1.25,0-1.25,0h-.26c-.94.64-1.41-.22-1.41-.22l-.04-.63c.42-.29.55.08.55.08l.09.45h.49s.02-.26.02-.59-.31-.46-.31-.46h-1.03c-.37.02-.31.29-.31.29,0,0,0,1.62.01,2.04,0,.42.42.65.42.65,0,0,2.76-.01,2.95-.01.18-.01.62-.4.62-.4l-.05-2.53Z"/>
  <path class="cls-3" d="M113.82,102.09c.56,0,1.02-.46,1.02-1.01s-.46-1.02-1.02-1.02-1.02.45-1.02,1.02.46,1.01,1.02,1.01Z"/>
  <path class="cls-3" d="M111.5,106.76s.64.09,1.09.07c.45-.02.45-.31.45-.31l-.02-.62h-.42l-.02.44c-.37.42-.57-.02-.57-.02l.02-.88c.22-.5,1.25,0,1.25,0h.26c.95-.64,1.41.23,1.41.23l.02.63c-.42.29-.55-.08-.55-.08l-.07-.45h-.5s-.02.26-.02.57.31.47.31.47h1.02c.37-.02.31-.29.31-.29v-2.04c0-.4-.4-.65-.4-.65h-2.95c-.19,0-.64.4-.64.4l.04,2.53Z"/>
  <path class="cls-3" d="M115.46,107.71s-.66-.11-1.1-.07c-.45.02-.43.31-.43.31l.02.63h.42l.02-.45c.36-.42.57.02.57.02l-.02.88c-.2.5-1.26.02-1.26.02h-.25c-.93.62-1.41-.23-1.41-.23l-.02-.63c.4-.29.54.08.54.08l.08.45h.49s.04-.26.02-.59c0-.32-.31-.46-.31-.46h-1.02c-.36.02-.31.29-.31.29,0,0,.01,1.62.01,2.04s.42.65.42.65c0,0,2.77-.01,2.95-.01s.63-.4.63-.4l-.04-2.53Z"/>
  <path class="cls-3" d="M112.69,93.86s.58.18.98.21c.41.04.43-.23.43-.23l.06-.56-.38-.06-.08.41c-.38.33-.52-.1-.52-.1l.13-.8c.24-.42,1.12.16,1.12.16l.24.04c.93-.46,1.25.38,1.25.38l-.05.56c-.42.21-.49-.13-.49-.13v-.42s-.47-.06-.47-.06c0,0-.05.24-.09.52-.04.29.23.47.23.47l.93.12c.33.03.32-.21.32-.21,0,0,.19-1.46.24-1.85.05-.37-.3-.63-.3-.63,0,0-2.5-.34-2.67-.36-.17-.02-.61.28-.61.28l-.29,2.29Z"/>
  <path class="cls-3" d="M115.92,95.68s-.56-.19-.97-.24c-.4-.05-.44.21-.44.21l-.09.57.37.06.09-.39c.4-.31.52.12.52.12l-.16.79c-.27.41-1.13-.2-1.13-.2l-.23-.04c-.95.42-1.24-.43-1.24-.43l.09-.56c.42-.21.47.15.47.15v.41l.45.07s.06-.23.11-.5c.06-.29-.2-.48-.2-.48l-.91-.15c-.33-.04-.32.2-.32.2,0,0-.26,1.46-.32,1.84-.08.37.26.64.26.64,0,0,2.5.45,2.65.47.17.04.64-.25.64-.25l.37-2.28Z"/>
  <path class="cls-3" d="M114.76,114c.5-.25.72-.85.47-1.35-.24-.5-.86-.72-1.36-.48-.5.25-.71.86-.47,1.35.24.5.86.72,1.36.48Z"/>
  <path class="cls-3" d="M114.66,118.51s.64-.19,1.03-.4c.39-.22.26-.47.26-.47l-.3-.55-.37.18.16.41c-.15.54-.53.23-.53.23l-.36-.81c-.04-.53,1.12-.54,1.12-.54l.23-.11c.58-.97,1.38-.41,1.38-.41l.29.56c-.25.44-.53.16-.53.16l-.26-.36-.45.22s.08.23.23.53c.13.28.48.29.48.29l.93-.45c.31-.18.15-.39.15-.39,0,0-.71-1.46-.88-1.84-.18-.37-.66-.4-.66-.4,0,0-2.5,1.2-2.65,1.28-.16.08-.39.62-.39.62l1.11,2.27Z"/>
  <path class="cls-3" d="M118.59,117.74s-.64.21-1.02.42c-.39.22-.26.48-.26.48l.3.54.37-.18-.17-.4c.14-.54.53-.23.53-.23l.37.8c.03.54-1.12.55-1.12.55l-.24.12c-.56.97-1.37.41-1.37.41l-.3-.55c.25-.45.53-.17.53-.17l.26.36.45-.22s-.08-.25-.23-.53c-.13-.29-.48-.29-.48-.29l-.92.45c-.32.19-.16.4-.16.4,0,0,.72,1.46.9,1.84.18.37.66.4.66.4,0,0,2.48-1.22,2.65-1.31.17-.07.4-.63.4-.63l-1.14-2.27Z"/>
  <path class="cls-3" d="M121.01,123.98c.35-.45.28-1.08-.16-1.42-.45-.35-1.08-.28-1.43.15-.35.45-.28,1.08.16,1.43.45.35,1.08.28,1.43-.16Z"/>
  <path class="cls-3" d="M123.42,127.9s.42-.42.65-.77c.22-.35.02-.52.02-.52l-.43-.35-.23.3.29.28c.09.52-.32.41-.32.41l-.59-.54c-.23-.46.67-.94.67-.94l.14-.19c.08-1.07.91-.91.91-.91l.45.36c-.04.48-.35.36-.35.36l-.35-.21-.26.36s.15.18.37.37c.22.18.49.04.49.04l.54-.76c.18-.29-.02-.4-.02-.4,0,0-1.09-.96-1.37-1.21-.29-.26-.67-.08-.67-.08,0,0-1.49,2.06-1.58,2.19-.1.15-.08.7-.08.7l1.72,1.49Z"/>
  <path class="cls-3" d="M126.77,125.89s-.4.39-.6.73c-.22.32-.02.48-.02.48l.41.33.22-.3-.28-.26c-.09-.49.31-.39.31-.39l.55.5c.22.43-.62.89-.62.89l-.15.18c-.07,1.02-.86.87-.86.87l-.41-.33c.02-.46.32-.35.32-.35l.32.19.25-.35s-.15-.16-.35-.34c-.21-.18-.47-.04-.47-.04l-.52.71c-.17.28.02.38.02.38,0,0,1.04.91,1.31,1.14.28.23.64.07.64.07,0,0,1.41-1.95,1.49-2.09.09-.13.07-.66.07-.66l-1.64-1.39Z"/>
  <path class="cls-3" d="M131.44,129.93c.01-.55-.43-1.02-1-1.03-.56,0-1.02.45-1.03,1.01-.01.55.43,1.02,1,1.03.57,0,1.02-.45,1.03-1.01Z"/>
  <path class="cls-3" d="M135.64,131.95s.1-.59.09-.98c-.02-.39-.28-.4-.28-.4l-.56.02v.37s.4.04.4.04c.37.32-.04.5-.04.5l-.8-.02c-.44-.21.01-1.13.01-1.13v-.23c-.55-.86.24-1.28.24-1.28h.57c.25.37-.09.48-.09.48l-.39.08v.44s.23.02.5.04c.29,0,.43-.27.43-.27v-.93c0-.33-.24-.29-.24-.29,0,0-1.45-.03-1.84-.03-.37-.01-.59.36-.59.36,0,0-.05,2.5-.05,2.67s.35.56.35.56h2.28Z"/>
  <path class="cls-3" d="M137.07,127.91s-.11.62-.08,1.04c.02.4.29.42.29.42l.6-.03v-.39l-.42-.02c-.38-.35.04-.54.04-.54l.84.04c.47.19-.01,1.18-.01,1.18v.25c.57.89-.24,1.32-.24,1.32l-.59.02c-.28-.4.07-.52.07-.52l.42-.07v-.47s-.24-.02-.54-.02c-.29-.01-.44.29-.44.29v.96c.01.35.26.3.26.3,0,0,1.52.01,1.92.02.4,0,.63-.4.63-.4,0,0,.02-2.61.02-2.78,0-.18-.36-.6-.36-.6h-2.4Z"/>
  <path class="cls-3" d="M143.15,128.89c-.34-.45-.98-.55-1.43-.21-.45.33-.54.97-.21,1.42.34.44.98.54,1.42.2.46-.32.55-.96.22-1.41Z"/>
  <path class="cls-3" d="M148.25,128.2s-.28-.53-.53-.84c-.27-.29-.47-.14-.47-.14l-.43.35.22.29.33-.21c.5.04.28.43.28.43l-.63.45c-.49.11-.69-.91-.69-.91l-.13-.18c-.96-.35-.59-1.15-.59-1.15l.45-.35c.42.15.22.43.22.43l-.27.3.26.36s.2-.12.42-.29c.23-.18.18-.48.18-.48l-.54-.74c-.22-.24-.39-.07-.39-.07,0,0-1.16.87-1.45,1.09-.3.23-.26.66-.26.66,0,0,1.48,1.99,1.58,2.12.09.13.62.26.62.26l1.82-1.38Z"/>
  <path class="cls-3" d="M146.99,124.54s.28.53.54.84c.26.3.47.14.47.14l.43-.36-.22-.3-.34.23c-.49-.04-.29-.43-.29-.43l.66-.46c.47-.12.68.9.68.9l.14.19c.96.34.59,1.14.59,1.14l-.42.35c-.45-.14-.23-.43-.23-.43l.27-.3-.27-.36s-.21.13-.42.3c-.23.17-.18.48-.18.48l.54.73c.22.25.39.07.39.07,0,0,1.17-.87,1.46-1.1.29-.23.25-.65.25-.65,0,0-1.5-2-1.61-2.12-.09-.13-.61-.24-.61-.24l-1.82,1.38Z"/>
  <path class="cls-3" d="M152.67,121.93c-.52-.23-1.12,0-1.34.52-.23.52,0,1.12.52,1.34.52.22,1.11-.01,1.34-.53.22-.52,0-1.1-.52-1.33Z"/>
  <path class="cls-3" d="M157.33,118.99s-.55-.36-.97-.52c-.41-.16-.53.11-.53.11l-.23.59.4.16.19-.39c.52-.24.52.25.52.25l-.37.8c-.39.37-1.15-.5-1.15-.5l-.25-.11c-1.1.2-1.18-.78-1.18-.78l.22-.58c.49-.11.47.29.47.29l-.11.43.46.21s.13-.23.25-.52c.14-.29-.09-.55-.09-.55l-.94-.41c-.35-.13-.4.13-.4.13,0,0-.64,1.48-.82,1.87-.16.37.13.76.13.76,0,0,2.53,1.11,2.71,1.19.16.07.73-.11.73-.11l.98-2.33Z"/>
  <path class="cls-3" d="M154.19,116.64s.56.35.98.5c.4.15.52-.11.52-.11l.22-.59-.36-.17-.21.4c-.5.24-.52-.25-.52-.25l.37-.8c.37-.37,1.15.49,1.15.49l.23.11c1.12-.2,1.21.77,1.21.77l-.22.59c-.49.09-.47-.29-.47-.29l.09-.43-.45-.21s-.14.23-.26.52c-.13.29.09.56.09.56l.94.4c.35.12.41-.13.41-.13,0,0,.64-1.49.81-1.87.16-.39-.14-.77-.14-.77,0,0-2.53-1.09-2.7-1.16-.16-.07-.73.11-.73.11l-.98,2.34Z"/>
  <path class="cls-3" d="M158.62,101.91c.56,0,1.03-.46,1.03-1.02s-.47-1.01-1.03-1.01-1.01.44-1.01,1.01.47,1.02,1.01,1.02Z"/>
  <path class="cls-3" d="M156.83,106.39s.67.11,1.1.08c.45-.02.45-.31.45-.31l-.04-.63h-.41l-.04.45c-.35.41-.57-.04-.57-.04l.04-.88c.21-.49,1.24,0,1.24,0h.27c.94-.63,1.42.23,1.42.23l.02.63c-.42.29-.55-.08-.55-.08l-.08-.44h-.49s-.02.25-.02.57.3.47.3.47h1.03c.35-.02.3-.29.3-.29v-2.04c0-.42-.42-.65-.42-.65h-2.95c-.18,0-.62.38-.62.38l.02,2.54Z"/>
  <path class="cls-3" d="M160.8,107.34s-.66-.09-1.1-.07c-.45.04-.45.32-.45.32l.04.63h.41l.04-.46c.36-.42.56.02.56.02v.89c-.22.5-1.28.01-1.28.01h-.26c-.94.63-1.41-.23-1.41-.23l-.04-.63c.42-.29.55.08.55.08l.08.44h.49s.02-.26.02-.57-.32-.47-.32-.47h-1.01c-.37.04-.32.3-.32.3,0,0,.01,1.62.01,2.03s.42.66.42.66c0,0,2.77-.02,2.95-.02.18,0,.62-.39.62-.39l-.04-2.54Z"/>
  <path class="cls-3" d="M157.35,89.31c.54-.13.88-.67.75-1.22-.14-.54-.68-.88-1.23-.76-.54.13-.88.68-.74,1.22.12.55.67.88,1.22.75Z"/>
  <path class="cls-3" d="M155.85,94.2s.63-.05,1.03-.17c.41-.13.35-.39.35-.39l-.16-.57-.4.09.08.42c-.25.46-.55.09-.55.09l-.16-.83c.09-.5,1.15-.27,1.15-.27l.26-.05c.73-.79,1.36-.09,1.36-.09l.15.57c-.32.35-.53.05-.53.05l-.16-.39-.46.11s.04.25.09.54c.08.29.4.36.4.36l.95-.23c.33-.09.21-.32.21-.32,0,0-.35-1.5-.45-1.89-.09-.39-.52-.52-.52-.52,0,0-2.57.61-2.73.64-.18.05-.49.5-.49.5l.57,2.34Z"/>
  <path class="cls-3" d="M159.6,94.54s-.61.05-1.01.18c-.42.12-.35.39-.35.39l.16.57.39-.09-.07-.42c.23-.47.54-.09.54-.09l.16.81c-.08.5-1.15.29-1.15.29l-.25.06c-.73.79-1.36.09-1.36.09l-.16-.56c.33-.36.54-.06.54-.06l.16.4.45-.11s-.02-.25-.09-.54c-.07-.29-.4-.36-.4-.36l-.94.22c-.33.11-.21.34-.21.34,0,0,.35,1.49.45,1.87.09.4.54.52.54.52,0,0,2.55-.62,2.72-.67.16-.04.49-.51.49-.51l-.61-2.32Z"/>
  <path class="cls-3" d="M157.17,77.3c.56,0,1.01-.46,1.01-1.02s-.45-1.01-1.01-1.01-1.01.46-1.01,1.01.45,1.02,1.01,1.02Z"/>
  <path class="cls-3" d="M155.31,81.8s.64.1,1.09.08c.45-.03.45-.31.45-.31l-.02-.64h-.42l-.02.46c-.36.42-.57-.04-.57-.04l.02-.88c.21-.49,1.27,0,1.27,0h.26c.94-.63,1.41.24,1.41.24l.02.62c-.41.29-.54-.07-.54-.07l-.09-.45h-.49s-.02.26-.02.58.32.46.32.46h1.02c.36-.02.32-.28.32-.28v-2.04c0-.42-.42-.64-.42-.64h-2.95c-.18,0-.62.38-.62.38l.02,2.54Z"/>
  <path class="cls-3" d="M159.28,82.74s-.66-.09-1.1-.07c-.43.04-.43.32-.43.32l.02.63h.41l.02-.45c.37-.42.59.01.59.01l-.02.89c-.21.5-1.24.01-1.24.01h-.27c-.94.63-1.41-.23-1.41-.23l-.04-.63c.42-.29.55.07.55.07l.08.45h.49s.02-.26.02-.57-.3-.47-.3-.47h-1.03c-.36.04-.3.3-.3.3,0,0,0,1.62.01,2.04,0,.41.42.65.42.65,0,0,2.75-.02,2.94-.02s.63-.4.63-.4l-.05-2.53Z"/>
  <polygon class="cls-3" points="116.77 76.83 117.06 76.24 116.28 76.63 116.77 76.83"/>
  <polygon class="cls-3" points="115.75 78.62 116.04 78.64 116.4 77.72 115.78 77.81 115.75 78.62"/>
  <polygon class="cls-3" points="114.86 78.7 114.55 78.15 114.21 78.64 114.86 78.7"/>
  <polygon class="cls-3" points="114.26 90.26 113.92 90.63 114.31 90.71 114.26 90.26"/>
  <polygon class="cls-3" points="114.06 111.23 114.11 111.57 114.42 111.52 114.44 111.31 114.06 111.23"/>
  <polygon class="cls-3" points="115.51 113.89 116.06 114.08 115.57 114.29 115.51 113.89"/>
  <polygon class="cls-3" points="114.29 114.42 114.06 114.96 114.46 114.86 114.29 114.42"/>
  <polygon class="cls-3" points="119.51 121.2 119.48 121.83 118.88 121.49 119.51 121.2"/>
  <polygon class="cls-3" points="128.99 128.08 128.7 128.72 129.25 128.7 128.99 128.08"/>
  <rect class="cls-3" x="132.15" y="129.69" width=".34" height=".23"/>
  <polygon class="cls-3" points="140.27 129.3 140.82 129.57 140.29 129.8 140.27 129.3"/>
  <polygon class="cls-3" points="144.06 128.3 143.6 128.36 143.53 127.76 144.06 128.3"/>
  <polyline class="cls-3" points="152.99 120.84 153.13 121.39 153.74 121.18 153.06 120.86"/>
  <polygon class="cls-3" points="157.99 114.65 158.34 114.65 158.34 114.31 157.95 114.31 157.99 114.65"/>
  <polygon class="cls-3" points="156.63 113.61 157 113.63 157 113.98 156.63 113.61"/>
  <polygon class="cls-3" points="157.99 110.78 158.31 110.81 158.31 111.16 158.01 111.1 157.99 110.78"/>
  <polyline class="cls-3" points="157.7 89.79 158.27 90.21 157.66 90.24 157.76 89.87"/>
  <polygon class="cls-3" points="157.56 78.3 157.17 77.78 156.85 78.28 157.56 78.3"/>
  <path class="cls-3" d="M158.15,113.77c.57,0,1.03-.46,1.03-1.02s-.46-1.01-1.03-1.01-1.01.45-1.01,1.01.45,1.02,1.01,1.02Z"/>
  <path class="cls-5" d="M119.65,71.7s2.23,2.6,8.67.09c0,0,3.87-1.07,7.71.6,0,0,4.53-2.44,10.44.07,0,0,3,1.26,5.85-.9l3.55,6.81s-2.99,2.79-3.48,5.65c0,0-1.68,6.89.91,12.18,0,0,1.45,3.7,2.51,4.95,0,0,1.03,6.13-4.11,10.03,0,0-2.09,2.16-4.17,2.92,0,0-4.11,1.11-5.51,1.26,0,0-3.9.9-5.5,2.64,0,0-3.69-2.36-6.62-2.57,0,0-4.32-.35-7.1-2.37,0,0-2.71-1.95-3.55-3.48,0,0-2.86-4.11-2.71-7.24,0,0,.13-1.11.62-1.61,0,0,3.48-6.06,3.28-11.55,0,0,.16-7.72-4.25-10.57l3.48-6.91"/>
  <path class="cls-16" d="M103.71,87.58l-.55-1.1-.78.91-.86.16.24,1.89.07,1.02s-.05,1.13-.47,2.37c0,0-.53,1.58-.53,1.99,0,0-.16.98,0,1.72,0,0,.29.66.53.86,0,0-.26,1.35.33,1.65l.03.18s-.67.22-.63.87c.06.66.08.53.24.68,0,0-.55.89-.6,1.42,0,0-.35.66.3,1.55,0,0-.53,1.15.08,1.71,0,0-.71.36-.57,1.78,0,0-.56.45-.72.73,0,0-.29.95-.24,1.13,0,0,.16,1.64.26,2.03,0,0,.21,1.62.18,2.04,0,0,.02.63-.09,1.12,0,0-.18,1.83-.96,2.71l-.05.26h.41l.48-.31.7,1.04.79-1,.56.45.4-.02s-.67-1.49-.6-2.58c0,0-.05-1.65.53-3.14,0,0,.52-1.36.6-2.43,0,0,.33-1.09-.64-1.82,0,0,1.14-.8.06-1.78,0,0,.98-1.09.15-1.83,0,0,1.25-.55.94-1.55,0,0-.21-1.04-.73-1.31,0,0,1.04-1.15,0-1.72,0,0,1.15-.88.29-1.9,0,0,1.15-.09,1.15-2.51,0,0-.43-2.77-.4-3.23.1-1.79.28-2.53.28-2.53l.46-.69.37-.43-1.03-.39"/>
  <polyline class="cls-13" points="103.05 86.94 102.54 87.94 102.85 88.93 103.5 88.07 103.05 86.94"/>
  <path class="cls-13" d="M104.2,88.12s-.62.55-.76,1.52c0,0-.11,1.96.05,3.52,0,0,.29,1.52.06,2.4,0,0,.18.53-.81,1.44,0,0-.47.18-1.18.06,0,0-.7-.42-.45-2.02,0,0,.66-2.51.81-3,0,0,.23-.6.23-2.04s0-.07,0-.07c0,0,0-1.86-.18-2.23,0,0,.44.32.53,1.18,0,0,.13,2.28-.06,2.82,0,0-.52,1.83-.57,2.12,0,0-.49,1.12-.28,2.03,0,0-.04.71.56.71,0,0,.71.28.93-.76,0,0,.09-.62.02-1.2,0,0-.22-1.86-.18-2.58,0,0,.02-2.31.25-2.91,0,0,.47-.87,1.02-1.07.56-.22,0,.08,0,.08"/>
  <polyline class="cls-13" points="102.54 92.91 102.04 94.13 102.7 94.12 102.54 92.91"/>
  <path class="cls-13" d="M102.36,96.28c.26,0,.48-.21.48-.48s-.22-.48-.48-.48-.48.22-.48.48.22.48.48.48"/>
  <path class="cls-13" d="M102.05,100.65c.31,0,.56-.25.56-.56s-.25-.57-.56-.57-.58.25-.58.57.26.56.58.56"/>
  <polyline class="cls-13" points="100.68 115.62 100.11 116.64 100.58 117.53 101.05 116.58 100.68 115.62"/>
  <path class="cls-13" d="M101.52,116.53s-.42-2.24-.09-3.47c0,0,.83-2.81.95-3.18.12-.37.13-1.38.02-1.6-.11-.2-.33-.6-.94-.67,0,0-1.04-.06-1.28.69,0,0-.2.82-.15,1.68,0,0,.21,1.27.26,1.67.05.39,0-.08,0-.08,0,0,.18.92.15,1.41,0,0-.02,1.31-.15,1.82,0,0-.53,1.65-.69,1.91,0,0,.94-1.25,1.02-1.78,0,0,.24-2.45.18-2.74-.05-.29-.31-2.06-.31-2.14,0-.08-.05-1.41.13-1.62,0,0,.29-.33.6-.33,0,0,.68.05.76.73,0,0,.06,1.02-.13,1.6,0,0-.57,1.59-.65,2,0,0-.29,1.68-.2,2.41,0,0,.07,1.23.52,1.69"/>
  <path class="cls-13" d="M101.77,105.28c.29,0,.53-.24.53-.54s-.24-.53-.53-.53c-.3,0-.54.24-.54.53s.23.54.54.54"/>
  <path class="cls-13" d="M101.26,109.55c.25,0,.47-.21.47-.45s-.22-.47-.47-.47-.46.21-.46.47.21.45.46.45"/>
  <polyline class="cls-13" points="100.92 110.65 101.43 110.68 101.16 111.73 100.92 110.65"/>
  <path class="cls-18" d="M101.27,100.81c-1.24,1.79-.23,2.94-.23,2.94-.18.3-.25.64-.25.64,0,0-.13.66.33,1.07,0,0-.91.63-.5,1.78,0,0-.24-.04-.38.28,0,0-.9-.35-.43,3.9M102.62,110.72c.91-3.25-.46-3.49-.46-3.49,1.15-.73.01-1.58.01-1.58.98-.69.35-1.75.35-1.75,0,0,.19-.17.37-.35"/>
  <path class="cls-13" d="M136.49,116.69s3.91-2.35,8.19-2.77v-19.52h-8.24l.05,22.29"/>
  <path class="cls-8" d="M140.06,103.72s.45-.36,1.18-.14c0,0,.14.04.41-.35,0,0,.12-.04.15.89,0,0,.01.15.2.47,0,0,.34.73-.04,1.76,0,0-.43,1.08-.13,1.85,0,0,.14.46.3.67,0,0,.42.51.42,1.48,0,0,0,.04.12.22,0,0,.33.56.57.7,0,0,.5.32.5-.35,0,0,.02-.21-.23-.88,0,0-.37-.97-.47-1.44,0,0-.19-.63-.12-.98,0,0,.23-.36.37.08,0,0,.02-.04-.01.26,0,0-.04.24-.04.45.01.22.02.42.26,1.05,0,0,.28.71.34.96,0,0,.15.39.07.67,0,0-.07.37-.32.39,0,0-.28.08-.52-.15,0,0-.37-.39-.54-.71,0,0-.19-.17-.26.12,0,0-.21.34.01.91,0,0,.08.19.02.5-.06.3,0,.01,0,.01,0,0-.15.77-.01,1.22,0,0,.12.38.09.4,0,0-.15.11-.18-.07,0,0-.11-.08-.18.02,0,0-.23.32-.37-.02,0,0-.12-.11-.21.06,0,0-.06.12-.13.11,0,0-.2,0-.08-.3,0,0,.08-.21.23-.32,0,0,.12-.02.23-.25,0,0,.05-.66.01-.74,0,0-.08-.63-.06-.73,0,0-.05-.1-.12-.16,0,0-.59-.5-.77-.94,0,0-.19-.17-.3.04,0,0-.04.05-.04.15-.01.09,0-.02,0-.02,0,0-.02.63-.19.95,0,0-.15.26-.41.07,0,0-1.05-.87-1.37-.97,0,0-.32-.05-.46-.23,0,0-.05-.07.01-.07,0,0,.49-.06.19-.4,0,0-.1-.16.13-.11,0,0,.32.08.16-.24,0,0-.02-.25.19-.02,0,0,.07.06.13.47,0,0,.01.21.23.42,0,0,.01.05.46.23,0,0,.36.12.13-.47,0,0-.08-.56.19-.84,0,0,.07-.1.33-.32,0,0,.05-.04.16-.01,0,0,.59.19.35-.28-.26-.46-.59-.88-.93-1.72,0,0-.12-.22-.41-.23,0,0-.74-.02-1.09-.12,0,0-.43-.2-.62-.04,0,0-.02.11-.25.09,0,0-.18-.05,0-.18,0,0,.21-.22-.11-.29,0,0-.15-.16.08-.19,0,0,.39-.05.02-.3,0,0-.12-.18.16-.15,0,0,.01,0,.09.08,0,0,.15.26.65.46,0,0,.19.05.61.01,0,0,.39-.02.64.07,0,0,.16.08.23-.08,0,0,.04-.14-.15-.18,0,0-.72-.23-1.01-.45,0,0-.21-.09-.66-1.01,0,0-.03-.09-.15-.1,0,0-.18-.01-.24-.05,0,0-.16-.15.05-.15,0,0,.31.08.39-.06,0,0,.02-.24-.22-.23,0,0-.19-.01-.07-.16,0,0,.11-.09.2-.02,0,0,.06.1.17.11,0,0,.23.04.13-.23,0,0-.05-.05-.1-.08,0,0-.12-.21.11-.15,0,0,.24.21.25.35,0,0-.02.75.24,1.13,0,0,.45.52.77.57,0,0,.18.08.37-.08,0,0,.3-.23.36-.39,0,0,.07-.13-.13-.23,0,0-.21-.13-.26-.22,0,0-.14-.17-.16-.46,0,0,.02-.22.06-.26,0,0,.12-.13.28-.16"/>
  <path class="cls-8" d="M129.54,93.66h-2.51v-20.38s4.86-2.03,8.51.32v14.1h-5.58v5.96h-.42"/>
  <path class="cls-9" d="M134.29,73.79s.53,1.03.53,1.56h-1.73v-.8h-1.22v.8h-1.42v-.8h-1.25v.8h-1.68s.26-1.38.53-1.56h6.24"/>
  <path class="cls-16" d="M129.07,76c.07.04.37.62.37.62.33.57-.01.95-.01.95.16-.25.56-.17.56-.17.84.31.45,1.04.45,1.04-.11.22-.31.17-.31.17-.14-.04-.04-.28-.04-.28.08-.37-.31-.28-.31-.28-.39.12-.3.78-.3.78,0,0,.28.11.22.3-.05.19-.22.15-.22.15,0,0-.18.06-.06.22,0,0,.11.23.26.01,0,0,.11-.4.23,0,0,0,.11.18-.06.42,0,0-.09.07-.52.09,0,0-.26.22-.26.32h-.05c0-.11-.26-.32-.26-.32-.42-.04-.52-.12-.52-.12-.16-.23-.05-.41-.05-.41.12-.4.23,0,.23,0,.15.22.26-.01.26-.01.11-.16-.06-.22-.06-.22,0,0-.18.04-.23-.15-.05-.19.23-.3.23-.3,0,0,.1-.66-.29-.78,0,0-.39-.11-.32.26,0,0,.12.26-.04.28,0,0-.2.06-.3-.16,0,0-.38-.74.47-1.04,0,0,.39-.08.54.18,0,0-.32-.39,0-.96,0,0,.32-.57.39-.62"/>
  <path class="cls-16" d="M133.54,76.1c.07.04.38.61.38.61.32.57-.02.95-.02.95.16-.23.55-.17.55-.17.86.31.46,1.04.46,1.04-.11.22-.31.17-.31.17-.15-.04-.04-.28-.04-.28.08-.37-.31-.26-.31-.26-.39.11-.3.77-.3.77,0,0,.28.11.23.3-.05.19-.23.16-.23.16,0,0-.18.06-.06.22,0,0,.11.22.26.01,0,0,.11-.4.23,0,0,0,.11.19-.06.42,0,0-.1.08-.52.11,0,0-.26.2-.26.31h-.05c0-.11-.26-.32-.26-.32-.42-.04-.52-.12-.52-.12-.15-.23-.05-.4-.05-.4.12-.41.23,0,.23,0,.15.21.26-.01.26-.01.11-.16-.06-.22-.06-.22,0,0-.18.04-.23-.16-.05-.19.23-.3.23-.3,0,0,.09-.66-.29-.78,0,0-.39-.1-.31.26,0,0,.11.25-.05.29,0,0-.19.05-.3-.17,0,0-.38-.74.47-1.04,0,0,.39-.06.55.18,0,0-.33-.39-.01-.96,0,0,.31-.56.39-.6"/>
  <path class="cls-16" d="M131.44,79.29c.08.04.37.62.37.62.32.57-.01.95-.01.95.15-.23.55-.17.55-.17.84.31.46,1.04.46,1.04-.11.22-.31.17-.31.17-.16-.04-.04-.28-.04-.28.08-.37-.31-.28-.31-.28-.38.12-.3.79-.3.79,0,0,.28.11.23.3-.05.19-.23.16-.23.16,0,0-.18.06-.06.21,0,0,.11.23.26.01,0,0,.11-.39.23,0,0,0,.11.18-.06.42,0,0-.1.07-.52.11,0,0-.26.21-.26.32h-.05c0-.11-.26-.33-.26-.33-.42-.04-.52-.12-.52-.12-.16-.23-.06-.41-.06-.41.13-.4.24,0,.24,0,.14.22.26-.01.26-.01.11-.15-.06-.21-.06-.21,0,0-.18.04-.23-.16-.05-.19.23-.3.23-.3,0,0,.09-.66-.29-.78,0,0-.38-.1-.31.26,0,0,.11.25-.05.29,0,0-.21.05-.3-.17,0,0-.39-.74.47-1.04,0,0,.38-.06.55.18,0,0-.33-.39-.01-.96,0,0,.31-.57.38-.62"/>
  <path class="cls-16" d="M129.14,82.58c.07.05.37.61.37.61.32.59-.01.96-.01.96.15-.24.55-.17.55-.17.84.31.46,1.04.46,1.04-.11.22-.32.16-.32.16-.14-.02-.04-.28-.04-.28.09-.37-.31-.26-.31-.26-.39.11-.3.77-.3.77,0,0,.28.11.23.3-.05.19-.23.15-.23.15,0,0-.17.06-.06.22,0,0,.11.23.26.02,0,0,.11-.41.23-.01,0,0,.11.19-.06.42,0,0-.09.09-.52.11,0,0-.26.2-.26.31h-.05c0-.11-.26-.32-.26-.32-.42-.04-.52-.11-.52-.11-.16-.24-.05-.42-.05-.42.12-.4.23.01.23.01.14.21.26-.02.26-.02.11-.15-.06-.22-.06-.22,0,0-.18.04-.23-.15-.05-.19.23-.3.23-.3,0,0,.1-.65-.29-.78,0,0-.38-.1-.31.26,0,0,.11.25-.05.29,0,0-.2.05-.3-.17,0,0-.39-.73.46-1.04,0,0,.39-.06.56.18,0,0-.34-.39-.01-.96,0,0,.31-.56.38-.6"/>
  <path class="cls-16" d="M133.81,82.5c.07.04.38.62.38.62.32.57-.02.95-.02.95.17-.25.56-.17.56-.17.85.31.45,1.04.45,1.04-.11.22-.31.17-.31.17-.14-.04-.04-.28-.04-.28.08-.37-.31-.27-.31-.27-.39.12-.3.77-.3.77,0,0,.28.11.23.3-.05.19-.23.15-.23.15,0,0-.16.06-.06.22,0,0,.12.23.26.02,0,0,.11-.41.23,0,0,0,.11.18-.06.4,0,0-.09.08-.52.11,0,0-.26.22-.26.33l-.05-.02c0-.09-.26-.31-.26-.31-.42-.04-.52-.12-.52-.12-.16-.23-.05-.41-.05-.41.12-.4.23,0,.23,0,.15.22.26-.01.26-.01.11-.16-.05-.22-.05-.22,0,0-.19.04-.24-.15-.05-.19.24-.3.24-.3,0,0,.08-.66-.3-.78,0,0-.39-.11-.31.26,0,0,.11.26-.04.29,0,0-.21.05-.32-.17,0,0-.38-.74.47-1.04,0,0,.39-.08.55.16,0,0-.33-.37-.01-.94,0,0,.32-.56.39-.62"/>
  <path class="cls-16" d="M129.25,88.6c.07.04.38.61.38.61.31.57-.02.95-.02.95.17-.24.55-.17.55-.17.86.31.46,1.04.46,1.04-.11.22-.31.17-.31.17-.15-.04-.04-.28-.04-.28.08-.37-.32-.28-.32-.28-.38.12-.3.78-.3.78,0,0,.28.11.23.29-.05.21-.23.17-.23.17,0,0-.16.06-.06.22,0,0,.12.22.26.01,0,0,.11-.41.23,0,0,0,.11.18-.06.4,0,0-.1.09-.52.11,0,0-.26.21-.26.32h-.05c0-.12-.26-.33-.26-.33-.42-.02-.52-.11-.52-.11-.15-.23-.05-.42-.05-.42.12-.4.23.01.23.01.15.21.26-.01.26-.01.12-.16-.06-.22-.06-.22,0,0-.18.02-.23-.17-.05-.19.23-.29.23-.29,0,0,.09-.66-.29-.78,0,0-.39-.11-.32.26,0,0,.11.25-.05.28,0,0-.19.05-.3-.17,0,0-.38-.73.47-1.03,0,0,.38-.07.55.17,0,0-.33-.37-.01-.95,0,0,.31-.57.39-.61"/>
  <path class="cls-8" d="M127.14,94.46l.05,19.41s6.84,1.04,8.41,2.71l.05-22.14"/>
  <path class="cls-16" d="M130.07,103.22s.74-.11,1.39.04c0,0,.15-.53.54-.88,0,0-.26-.09-.43.05,0,0-.19.17-.24.25,0,0-.04,0-.09-.18,0,0-.05-.15-.16.02l-.06.13s-.04.06-.08-.05l-.19-.4s-.09-.23-.18.02c0,0-.12.39-.15.4,0,0-.04.02-.07-.05,0,0-.08-.12-.15-.12,0,0-.08.02-.18.16,0,0-.01.02-.08-.04,0,0-.19-.32-.59-.28,0,0,.72.84.7.93"/>
  <path class="cls-16" d="M131.11,103.42s.19.08.35.09c0,0,.13.08.21.18,0,0,.22.35.64.57,0,0,.15.17-.09.4,0,0-.14.13-.16.32,0,0-.04.23-.29.23,0,0-.12.05.01.13,0,0,.39.32.57.39,0,0,.18.05.29-.07l.56-.57s.05-.17-.01-.29c0,0-.37-.76.28-1.04,0,0,.12-.06.13.09,0,0-.05.16.19.15,0,0,.08.01.07.17,0,0,0,.08.18.14,0,0,.12,0-.08.26,0,0-.05.19-.02.39,0,0-.06.12-.06.23,0,0-.02.05-.04.07,0,0-.12.05-.07.16,0,0,.07.11-.02.15,0,0-.16.09-.17.25,0,0,.04.09-.17.1,0,0,.02.24-.11.3,0,0-.11.05-.22-.02,0,0-.21.08.04.15,0,0,.42.21.87-.44,0,0,.16-.31.61-.26,0,0,.15.07,0,.25,0,0-.19.21.15.22,0,0,.2.07.04.22,0,0-.1.06.07.19,0,0,.17.19-.23.32,0,0,0,.06-.46.02,0,0-.05.35-.31.17,0,0-.07-.04-.13.08,0,0-.05.12-.22.07,0,0-.09-.04-.11.08,0,0-.11.07-.21-.01,0,0-.05-.02-.08.05,0,0-.13.1-.35-.05l-.13-.08s-.09,0-.12.05c0,0-.05.29-.37.57,0,0-.36.36-.48.64,0,0-.18.37-.21.47,0,0-.02.12.08.19,0,0,.05.07.18-.06,0,0,.27-.24.54-.16,0,0,.26.08.28.45,0,0-.02.43-.1.87,0,0-.04.22,0,.32,0,0,0,.11.1.05,0,0,.38-.29.44-.37,0,0-.11-.69.52-.94,0,0,.16.01.08.17,0,0,.29-.08.11.29,0,0,.25-.05.16.29,0,0,.25,0,.02.24,0,0-.06.06-.07.11,0,0-.09.16-.25.22,0,0-.18.15-.18.35,0,0-.09.13-.19.17,0,0-.13.13-.15.21,0,0-.08.12-.26.12,0,0-.09.06-.13.17,0,0-.02.09-.24.08,0,0,0,.06-.13.07,0,0,0,.12-.04.14,0,0-.19.1-.2-.13,0,0-.09-.91-.43-1.21,0,0-.13-.09-.22.01,0,0-.36.63-.96,1.05,0,0-.04.04-.04.08,0,0,0,.98-.07,1.25,0,0-.02.04.09.11,0,0,.76.32.73.74,0,0-.08.08-.25.02,0,0-.15.23-.32-.02,0,0-.13-.11-.22.01,0,0-.12.21-.25-.02,0,0-.15-.25-.22-.01,0,0-.12.22-.25-.06,0,0-.11-.08-.01-.39,0,0,.21-.42.11-.96,0,0-.15-.69.11-1.04,0,0,.01-.02.02-.08l-.06-.39s-.04-.18-.12,0c0,0-.14.57-.6.58,0,0-.74.04-.64-1.04,0,0,.09-.7.26-1.05,0,0,.01-.13-.05-.18l-.59-.47s-.31-.24.07-.74c0,0,.18-.16.16.16,0,0,.01.31.59.53,0,0,.09.13.13-.08,0,0,.01-.15.07-.21,0,0,.33-.9-.1-1.08,0,0-.12-.05-.26.06,0,0-.79.05-.76-.6,0,0,.57,0,.87-.14,0,0,.7-.3.81.61,0,0,.05.7-.28,1.76,0,0-.25.57-.33,1.08,0,0-.11.52-.1.71,0,0,.09.56.37-.01,0,0,.13-.3.11-.64,0,0-.02-.41.3-.93,0,0,.2-.2.37-.98,0,0,.14-.87-.29-1.42,0,0-.18.01-.19-.05,0,0-.06-.01.04-.5,0,0-.3,0-.14-.31,0,0,.05-.13-.09-.12,0,0-.25-.04.02-.24,0,0,.21-.19-.04-.18,0,0-.17,0,.01-.23,0,0,.11-.12-.01-.22,0,0-.17-.17.17-.25,0,0,.28,0,.04-.22,0,0-.15-.21.19-.25,0,0,.13,0,.06-.11,0,0-.13-.25.33-.26,0,0,.17,0,.06-.14,0,0-.06-.28.29-.18,0,0,.16.1.3-.04,0,0,.08-.28.28-.06"/>
  <path class="cls-13" d="M145.56,94.39h6.12s1.68,5.22,3.23,7.62c0,0,.16,8.62-9.35,11.6v-19.21"/>
  <polyline class="cls-16" points="146.6 101.51 147.63 101.51 147.63 102.47 148.61 102.47 148.61 103.58 147.67 103.58 147.67 104.67 146.57 104.67 146.57 103.58 145.61 103.58 145.61 102.49 146.6 102.49 146.6 101.51"/>
  <polyline class="cls-16" points="148.56 94.81 149.62 94.81 149.62 95.78 150.58 95.78 150.58 96.88 149.67 96.88 149.67 97.98 148.54 97.98 148.54 96.88 147.6 96.88 147.6 95.81 148.56 95.81 148.56 94.81"/>
  <path class="cls-16" d="M152.1,102.54h.96v-1h1.05v.96h.77s0,.66-.13,1.13h-.6v1.07h-1.12v-1.09h-.94v-1.07"/>
  <polyline class="cls-16" points="148.9 107.63 149.95 107.63 149.95 108.59 150.91 108.59 150.91 109.69 149.99 109.69 149.99 110.78 148.87 110.78 148.87 109.69 147.93 109.69 147.93 108.63 148.9 108.63 148.9 107.63"/>
  <path class="cls-13" d="M136.44,87.76v-14.16s2.65-2.25,8.24-.36v20.47h-2.44v-5.95h-5.8"/>
  <polyline class="cls-16" points="138.08 74.44 143.01 74.44 143.01 75.88 141.35 75.88 141.35 81.72 142.93 81.72 142.93 80.03 144.37 80.03 144.37 84.83 142.93 84.83 142.93 83.27 141.35 83.27 141.35 87.39 139.88 87.39 139.88 83.27 138.29 83.27 138.29 84.83 136.85 84.83 136.85 80.03 138.29 80.03 138.29 81.7 139.9 81.7 139.9 75.88 138.08 75.88 138.08 74.44"/>
  <rect class="cls-16" x="142.54" y="89.22" width=".5" height="1.2"/>
  <polyline class="cls-16" points="137.71 76.74 138.55 76.74 138.55 77.44 139.28 77.44 139.28 78.28 138.57 78.28 138.57 79.03 137.68 79.03 137.68 78.3 136.98 78.3 136.98 77.5 137.71 77.5 137.71 76.74"/>
  <polyline class="cls-16" points="142.68 76.72 143.53 76.72 143.53 77.43 144.25 77.43 144.25 78.26 143.55 78.26 143.55 79.02 142.66 79.02 142.66 78.29 141.95 78.29 141.95 77.48 142.68 77.48 142.68 76.72"/>
  <polyline class="cls-16" points="139.25 86.69 138.46 86.69 138.46 86 137.66 86 137.66 86.71 136.93 86.71 136.93 87.42 139.25 87.42 139.25 86.69"/>
  <polyline class="cls-16" points="142.7 85.93 143.55 85.93 143.55 86.67 144.25 86.67 144.25 87.48 143.55 87.48 143.55 88.21 142.7 88.21 142.7 87.5 142.47 87.5 142.47 87.37 142 87.37 142 86.67 142.7 86.67 142.7 85.93"/>
  <path class="cls-5" d="M129.69,87.39h12.85v11.91s-.42,2.4-2.55,2.51c0,0-3.61-.11-3.81,1.2,0,0-.79-1.15-1.93-1.26,0,0-2.07.06-2.64-.26,0,0-1.54-.18-1.96-2.45l.05-11.65"/>
  <path class="cls-16" d="M141.93,99.23s-.21,1.5-1.78,1.91c0,0-3.05-.1-3.63.45v-13.58h5.43l-.02,11.22"/>
  <path class="cls-15" d="M139.34,92.22c.86,0,1.54-.68,1.54-1.52s-.68-1.54-1.54-1.54-1.54.68-1.54,1.54.7,1.52,1.54,1.52"/>
  <path class="cls-13" d="M138.37,90.01s.11.18.11.18c.09.16-.02.28-.02.28.05-.06.17-.05.17-.05.24.09.13.31.13.31-.04.06-.1.05-.1.05-.04-.01-.01-.08-.01-.08.02-.11-.08-.08-.08-.08-.11.04-.08.22-.08.22,0,0,.07.04.06.09-.01.06-.07.05-.07.05,0,0-.05.02-.02.07,0,0,.04.06.08,0,0,0,.04-.12.07,0,0,0,.04.05-.01.12,0,0-.04.02-.16.02,0,0-.07.07-.07.09h-.02s-.07-.09-.07-.09c-.12-.01-.15-.02-.15-.02-.05-.07-.02-.13-.02-.13.04-.11.07.01.07.01.05.06.08-.01.08-.01.04-.05-.01-.06-.01-.06,0,0-.05.01-.08-.05-.01-.06.08-.09.08-.09,0,0,.02-.19-.09-.22,0,0-.12-.04-.09.07,0,0,.04.07-.01.08,0,0-.06.01-.09-.05,0,0-.11-.22.13-.3,0,0,.12-.02.17.05,0,0-.11-.11-.01-.28,0,0,.09-.17.12-.18"/>
  <path class="cls-13" d="M139.32,90.01s.11.17.11.17c.1.18,0,.29,0,.29.05-.07.16-.05.16-.05.25.08.13.3.13.3-.02.06-.08.05-.08.05-.05-.01-.01-.08-.01-.08.02-.11-.09-.07-.09-.07-.11.04-.09.21-.09.21,0,0,.09.04.08.1-.02.05-.08.05-.08.05,0,0-.05.01-.02.06,0,0,.04.06.09,0,0,0,.04-.12.07,0,0,0,.02.06-.02.12,0,0-.02.02-.15.04,0,0-.08.06-.08.09h-.01s-.08-.11-.08-.11c-.12,0-.15-.02-.15-.02-.05-.07-.01-.12-.01-.12.04-.12.06,0,.06,0,.05.06.08,0,.08,0,.04-.05-.02-.07-.02-.07,0,0-.05.01-.06-.05-.01-.05.06-.09.06-.09,0,0,.04-.19-.08-.22,0,0-.11-.02-.08.08,0,0,.02.07-.01.07,0,0-.06.02-.1-.05,0,0-.11-.21.15-.3,0,0,.11-.01.15.05,0,0-.09-.11,0-.28,0,0,.09-.17.11-.18"/>
  <path class="cls-13" d="M140.29,90.06s.11.18.11.18c.11.17,0,.28,0,.28.05-.07.15-.05.15-.05.26.1.14.3.14.3-.02.07-.09.05-.09.05-.05,0,0-.07,0-.07.02-.11-.09-.08-.09-.08-.12.04-.09.23-.09.23,0,0,.09.04.07.08-.02.06-.07.05-.07.05,0,0-.05.02-.01.06,0,0,.02.07.07.01,0,0,.04-.12.08,0,0,0,.02.05-.02.12,0,0-.02.02-.15.02,0,0-.08.06-.08.09h-.01s-.08-.09-.08-.09c-.12-.01-.14-.04-.14-.04-.05-.06-.02-.12-.02-.12.05-.12.07,0,.07,0,.05.07.07,0,.07,0,.05-.05-.02-.06-.02-.06,0,0-.05.01-.05-.05-.02-.06.05-.08.05-.08,0,0,.05-.19-.07-.23,0,0-.12-.04-.09.07,0,0,.02.07,0,.08,0,0-.07.01-.11-.05,0,0-.11-.21.15-.3,0,0,.09-.02.14.05,0,0-.09-.11,0-.28,0,0,.09-.16.12-.18"/>
  <path class="cls-15" d="M137.64,95.03c.5,0,.91-.42.91-.92s-.41-.93-.91-.93-.93.41-.93.93.41.92.93.92"/>
  <path class="cls-15" d="M140.5,95.06c.52,0,.93-.42.93-.93s-.41-.93-.93-.93-.92.41-.92.93.4.93.92.93"/>
  <path class="cls-15" d="M137.71,97.81c.52,0,.93-.4.93-.91s-.4-.93-.93-.93-.92.41-.92.93.4.91.92.91"/>
  <path class="cls-15" d="M140.57,97.85c.52,0,.94-.42.94-.92s-.42-.93-.94-.93-.91.41-.91.93.42.92.91.92"/>
  <path class="cls-15" d="M139.12,100.27c.5,0,.93-.41.93-.93s-.43-.92-.93-.92-.93.42-.93.92.41.93.93.93"/>
  <path class="cls-16" d="M130.21,99.25s.22,1.49,1.78,1.91c0,0,3.06-.11,3.63.45v-13.59h-5.44l.02,11.23"/>
  <polyline class="cls-15" points="130.18 88 132.52 88 135.62 93.31 135.62 101.58 130.16 93.31 130.18 88"/>
  <path class="cls-13" d="M133.73,95.12s-.08-.18,0-.27c0,0,.12-.15.28,0,0,0,.11.12.09.19,0,0,.01.17.05.23,0,0,.05.08.17-.24,0,0,.14-.25.29-.31,0,0,.5-.17.96.13,0,0,.15.18-.25.18,0,0-.31-.08-.41-.02,0,0-.3.22-.38.54,0,0-.08.13.13.25,0,0,.17.11.28.13,0,0,.23.23-.16.19,0,0-.17-.05-.19-.04,0,0-.06.04-.07.12,0,0-.03.07-.03.11,0,0-.11.19-.19-.01,0,0,.06-.22-.02-.52,0,0-.1-.15-.25-.07,0,0-.41.08-.67.72,0,0-.18.28-.18-.05,0,0,.09-.76.3-.9,0,0,.11-.07.57-.06,0,0,.08-.02-.08-.12,0,0-.15-.09-.21-.19"/>
  <path class="cls-13" d="M131.14,90.93s-.08-.18-.01-.26c0,0,.12-.16.28,0,0,0,.11.12.11.19,0,0,0,.17.04.25,0,0,.05.07.17-.26,0,0,.14-.25.29-.31,0,0,.52-.15.96.13,0,0,.17.16-.25.16,0,0-.3-.06-.4-.01,0,0-.3.22-.39.54,0,0-.07.13.15.26,0,0,.16.11.26.14,0,0,.23.22-.16.19,0,0-.18-.06-.19-.04,0,0-.08.02-.09.11,0,0-.02.07-.02.11,0,0-.09.19-.19-.01,0,0,.06-.22-.02-.52,0,0-.09-.16-.25-.08,0,0-.39.09-.67.72,0,0-.18.28-.18-.05,0,0,.09-.76.31-.9,0,0,.09-.07.55-.05,0,0,.09-.04-.07-.13,0,0-.16-.1-.21-.19"/>
  <path class="cls-13" d="M132.52,93s-.08-.18,0-.26c0,0,.11-.15.26,0,0,0,.12.12.11.19,0,0,.01.17.05.23,0,0,.04.08.17-.24,0,0,.15-.25.29-.31,0,0,.5-.17.95.13,0,0,.17.17-.24.17,0,0-.31-.08-.42-.01,0,0-.29.22-.38.54,0,0-.06.13.14.25,0,0,.17.11.28.13,0,0,.23.23-.16.19,0,0-.17-.05-.19-.04,0,0-.07.04-.07.12,0,0-.02.07-.02.11,0,0-.11.19-.2-.01,0,0,.07-.22-.02-.52,0,0-.09-.16-.25-.07,0,0-.4.08-.67.71,0,0-.18.28-.18-.05,0,0,.1-.76.32-.9,0,0,.11-.08.56-.06,0,0,.08-.02-.07-.12,0,0-.17-.09-.22-.19"/>
  <path class="cls-13" d="M151.42,93.71h-5.91v-20.37s3.61,1.25,6.37-.26l2.72,4.9s-5.6,5.02-3.19,15.72"/>
  <path class="cls-15" d="M152.96,75.01l1.04,1.82v1.84s-1.03,1.39-1.03,1.49v-5.15"/>
  <path class="cls-15" d="M148.63,73.79s.87.02,1.09-.06v19.98h-1.09v-19.92"/>
  <path class="cls-15" d="M146.53,73.55s.93.22,1.05.22v19.95h-1.05v-20.16"/>
  <path class="cls-15" d="M151.42,93.71s-.98-4.73-.42-7.35c0,0,.59-3.19.86-3.85v-9.43s-.67.32-1.1.39v20.24h.67"/>
  <path class="cls-16" d="M164.81,98.47c0-4.39,3.56-7.95,7.96-7.95s7.93,3.56,7.93,7.95-3.56,7.96-7.93,7.96-7.96-3.57-7.96-7.96"/>
  <path class="cls-12" d="M164.81,98.47c0-4.39,3.56-7.95,7.96-7.95s7.93,3.56,7.93,7.95-3.56,7.96-7.93,7.96-7.96-3.57-7.96-7.96Z"/>
  <polyline class="cls-16" points="176.82 91.69 178.49 88.75 179.89 89.35 180.42 88.43 178.95 87.76 179.89 85.97 178.89 85.44 177.95 87.23 176.43 86.44 176.03 87.36 177.51 88.15 175.85 91.24 176.82 91.69"/>
  <path class="cls-8" d="M167.1,94.45c3.32-4.69,8.39-2.61,8.39-2.61l-2.86,5.6-5.53-2.99"/>
  <path class="cls-8" d="M176.6,92.56s4.95,3.25,2.74,8.46l-5.6-2.99,2.86-5.47"/>
  <path class="cls-8" d="M166.47,95.38c-1.83,3.4-.53,7.65,2.89,9.48,3.41,1.82,7.65.54,9.48-2.88"/>
  <path class="cls-13" d="M126.25,73.6v20.84h-5.86s2.98-10.39-3.13-15.98l2.42-5.07s1.28,1.32,6.57.22"/>
  <path class="cls-15" d="M126.26,91.62v-2.54h-5.19s-.02,2.04-.18,2.51l5.37.04"/>
  <path class="cls-15" d="M126.25,84.01v2.47h-5.29s-.29-1.98-.44-2.45l5.72-.02"/>
  <path class="cls-15" d="M126.25,81.3l-.02-2.53h-8.62s1.61,1.97,1.82,2.54h6.82"/>
  <path class="cls-15" d="M126.25,76.13v-2.53s-4.95.98-6.57-.22l-1.31,2.75h7.88"/>
  <path class="cls-9" d="M120.39,94.44s-1.57,4.76-3.24,7.74c0,0-.12,1.43.3,2.71,0,0,.36,2.67,4.44,6.7,0,0,.05.18,1.46,1.01,0,0,2.16,1.14,3.8,1.37v-19.5l-6.77-.02"/>
  <path class="cls-8" d="M120.8,94.78h5.99v18.82s-3.55-.46-6.45-4.15c0,0-2.89-3.06-2.78-6.96,0,0,1.01-2.6,1.52-3.52,0,0,1.43-3.45,1.43-4.21l.29.02"/>
  <path class="cls-16" d="M123.64,95.41c.07.05.37.61.37.61.32.59-.01.96-.01.96.15-.24.55-.17.55-.17.84.32.46,1.04.46,1.04-.11.22-.32.16-.32.16-.14-.03-.04-.28-.04-.28.08-.37-.31-.26-.31-.26-.39.11-.3.77-.3.77,0,0,.28.11.23.3-.05.19-.24.16-.24.16,0,0-.17.06-.05.22,0,0,.11.24.26.02,0,0,.11-.41.23-.01,0,0,.09.19-.06.42,0,0-.09.09-.52.11,0,0-.26.22-.26.31h-.05c0-.11-.26-.32-.26-.32-.42-.04-.52-.11-.52-.11-.16-.24-.05-.42-.05-.42.12-.4.23.01.23.01.14.22.26-.02.26-.02.11-.15-.06-.22-.06-.22,0,0-.18.04-.22-.16-.05-.19.22-.3.22-.3,0,0,.1-.64-.29-.77,0,0-.39-.11-.32.26,0,0,.12.24-.04.28,0,0-.21.05-.3-.17,0,0-.39-.73.45-1.04,0,0,.4-.06.56.18,0,0-.34-.37,0-.96,0,0,.31-.56.38-.6"/>
  <path class="cls-16" d="M120.68,98.38c.08.04.39.61.39.61.32.58-.02.95-.02.95.16-.24.55-.17.55-.17.85.32.46,1.04.46,1.04-.11.22-.3.17-.3.17-.16-.04-.05-.28-.05-.28.09-.37-.31-.28-.31-.28-.38.12-.3.78-.3.78,0,0,.29.11.23.3-.05.19-.23.16-.23.16,0,0-.17.06-.06.22,0,0,.12.23.26.01,0,0,.11-.41.23,0,0,0,.11.18-.06.42,0,0-.09.08-.52.11,0,0-.26.21-.26.31h-.05c0-.11-.26-.32-.26-.32-.42-.04-.5-.12-.5-.12-.17-.22-.06-.4-.06-.4.13-.41.23,0,.23,0,.14.22.26-.01.26-.01.12-.16-.05-.22-.05-.22,0,0-.19.04-.24-.16-.05-.19.24-.3.24-.3,0,0,.08-.66-.3-.78,0,0-.38-.11-.31.26,0,0,.11.25-.05.29,0,0-.19.05-.3-.17,0,0-.39-.74.47-1.04,0,0,.39-.07.55.17,0,0-.33-.37-.01-.95,0,0,.31-.56.38-.62"/>
  <path class="cls-16" d="M123.64,101.23c.07.04.37.61.37.61.32.58-.01.95-.01.95.15-.23.55-.16.55-.16.84.31.46,1.04.46,1.04-.11.22-.32.16-.32.16-.14-.04-.04-.27-.04-.27.08-.37-.31-.28-.31-.28-.39.12-.3.79-.3.79,0,0,.28.11.23.29-.05.2-.24.16-.24.16,0,0-.17.06-.05.22,0,0,.11.23.26.01,0,0,.11-.41.23,0,0,0,.09.18-.06.42,0,0-.09.07-.52.09,0,0-.26.22-.26.33h-.05c0-.11-.26-.33-.26-.33-.42-.04-.52-.12-.52-.12-.16-.23-.05-.41-.05-.41.12-.41.23,0,.23,0,.14.22.26-.01.26-.01.11-.15-.06-.22-.06-.22,0,0-.18.04-.22-.16-.05-.19.22-.29.22-.29,0,0,.1-.66-.29-.79,0,0-.39-.11-.32.27,0,0,.12.25-.04.27,0,0-.21.05-.3-.16,0,0-.39-.73.45-1.03,0,0,.4-.08.56.16,0,0-.34-.37,0-.95,0,0,.31-.56.38-.61"/>
  <path class="cls-16" d="M120.64,103.91c.07.05.39.61.39.61.32.59-.02.96-.02.96.16-.24.55-.18.55-.18.85.33.46,1.05.46,1.05-.11.22-.3.16-.3.16-.15-.02-.04-.28-.04-.28.08-.37-.32-.26-.32-.26-.37.11-.3.77-.3.77,0,0,.29.11.23.3-.05.19-.23.16-.23.16,0,0-.17.06-.06.22,0,0,.12.24.26.02,0,0,.11-.41.23-.01,0,0,.11.19-.06.42,0,0-.09.09-.5.11,0,0-.28.22-.28.31h-.05c0-.11-.26-.32-.26-.32-.41-.04-.5-.11-.5-.11-.17-.23-.06-.42-.06-.42.13-.39.23.01.23.01.14.22.26-.02.26-.02.12-.15-.05-.22-.05-.22,0,0-.19.04-.23-.16-.05-.19.23-.3.23-.3,0,0,.09-.66-.29-.78,0,0-.39-.1-.32.28,0,0,.11.24-.04.28,0,0-.21.05-.31-.17,0,0-.39-.74.47-1.04,0,0,.39-.06.55.18,0,0-.34-.38-.01-.96,0,0,.31-.56.38-.6"/>
  <path class="cls-16" d="M123.61,107.04c.07.05.37.62.37.62.32.59-.02.96-.02.96.16-.24.56-.17.56-.17.84.31.46,1.04.46,1.04-.11.22-.32.17-.32.17-.14-.04-.04-.29-.04-.29.08-.36-.31-.26-.31-.26-.39.11-.3.77-.3.77,0,0,.28.11.23.3-.05.19-.23.15-.23.15,0,0-.18.06-.06.22,0,0,.11.24.27.03,0,0,.11-.41.22-.01,0,0,.11.19-.06.42,0,0-.09.09-.52.11,0,0-.26.21-.26.31h-.05c0-.11-.26-.32-.26-.32-.42-.03-.52-.11-.52-.11-.16-.23-.05-.42-.05-.42.12-.39.22.02.22.02.15.21.27-.03.27-.03.11-.14-.06-.22-.06-.22,0,0-.18.04-.23-.15-.05-.19.23-.3.23-.3,0,0,.1-.64-.29-.76,0,0-.38-.11-.31.26,0,0,.11.25-.05.28,0,0-.19.05-.3-.17,0,0-.38-.73.47-1.04,0,0,.39-.06.56.18,0,0-.34-.37-.01-.95,0,0,.31-.57.38-.62"/>
  <path class="cls-16" d="M126.8,108.4s-.23.18-.23.29h-.05c0-.11-.26-.33-.26-.33-.42-.04-.52-.12-.52-.12-.16-.23-.06-.41-.06-.41.13-.4.24,0,.24,0,.15.22.26-.01.26-.01.11-.15-.06-.21-.06-.21,0,0-.18.04-.23-.16-.05-.19.23-.3.23-.3,0,0,.08-.66-.29-.78,0,0-.4-.1-.32.26,0,0,.12.25-.04.29,0,0-.2.05-.32-.17,0,0-.38-.74.47-1.04,0,0,.4-.06.55.18,0,0-.33-.39,0-.96,0,0,.52-.72.59-.76"/>
  <path class="cls-8" d="M135.13,36.01v1.08h-1.04s.23-.89,1.04-1.08"/>
  <path class="cls-8" d="M135.85,37.1v-1.11s.9.1,1.21,1.11h-1.21"/>
  <path class="cls-10" d="M134.07,37.81h2.96s-.21,1.2-1.48,1.2c0,0-1.49-.05-1.49-1.2"/>
  <path class="cls-16" d="M150.09,105.6c-.42-.06-.3.29-.3.29-.02.3.21.7.21.7.23.56-.33.44-.33.44-.37-.07-1.05-.81-1.05-.81-.68.19-1.08-.06-1.08-.06-.67-.35-.21-.49-.21-.49.94-.19,1.52-.88,1.52-.88.19-.19.08-.25.08-.25-.47-.32-.02-.44-.02-.44.64-.42.53-.88.53-.88,0-.46-.28-.07-.28-.07l-.05.26c-.54.72-.47-.19-.47-.19.25-.71.11-1.31.11-1.31-.2-.54-.55-1.55-.55-1.55-.37-1.89.52-1.89.52-1.89.94.02,1.5,1.45,1.5,1.45l.08.22.12-.22s.54-1.43,1.48-1.44c0,0,.9,0,.52,1.88,0,0-.34,1.01-.53,1.55,0,0-.16.6.09,1.31,0,0,.07.93-.47.19l-.05-.26s-.28-.39-.28.07c0,0-.12.46.54.88,0,0,.42.12-.02.44,0,0-.12.06.07.25,0,0,.6.69,1.52.88,0,0,.47.14-.21.49,0,0-.4.25-1.08.06,0,0-.67.74-1.05.81,0,0-.55.12-.33-.43,0,0,.23-.41.21-.71,0,0,.19-.36-.23-.3h-.49M150.3,105.32c.12,0,.23-.3.23-.64,0-.36-.12-.65-.23-.65-.14,0-.23.29-.23.65s.09.64.23.64Z"/>
  <path class="cls-16" d="M126.8,102.35s-.23.18-.23.28h-.05c0-.11-.26-.33-.26-.33-.42-.02-.52-.11-.52-.11-.16-.23-.05-.42-.05-.42.12-.39.23.01.23.01.15.22.26-.01.26-.01.11-.15-.06-.21-.06-.21,0,0-.18.02-.23-.17-.05-.19.23-.29.23-.29,0,0,.1-.66-.29-.79,0,0-.39-.11-.31.27,0,0,.11.25-.05.27,0,0-.19.05-.3-.16,0,0-.38-.73.47-1.04,0,0,.39-.06.55.18,0,0-.33-.37-.01-.94,0,0,.53-.72.6-.77"/>
  <path class="cls-14" d="M38.57,145.32l10.39-1.32.06,27.78s.13,8.7,8.31,8.57c0,0,9.01.82,9.07-8.57v-27.85h3.34v27.85s.94,11.29-12.41,10.9c0,0-13.17,1.2-13.17-10.9v-22.29s.57-3.16-5.67-3.16l-.12-1.07"/>
  <path class="cls-14" d="M82.09,181.93h-2.89v-33.52s.06-3.4-5.67-3.53v-1.01h11.22l17.95,31.12v-30.99h2.91v38h-4.35l-19.08-33.09-.07,33.02"/>
  <path class="cls-14" d="M120.53,143.93v38.07h-4.85v-32.51s.76-3.09-5.54-3.16v-1.01l10.39-1.39"/>
  <path class="cls-14" d="M155.24,151.74h-5.55s-.25-5.79-6.54-5.79c0,0-5.72.17-7.73,5.22,0,0-3.02,6.89-.59,18.14,0,0,2.02,9.67,10.17,10.5,0,0,5.11,1.01,10.15-1.17v2.36s-4.62,2.26-10.75,1.76c0,0-5.29.26-9.49-3.69,0,0-5.04-4.37-5.71-9.83,0,0-1.59-5.13-.76-11.6,0,0,.5-11.43,10.5-13.86,0,0,5.88-1.16,10.68.67,0,0,4.95,1.68,5.62,7.31"/>
  <path class="cls-14" d="M164.4,144.02h9.67l14.53,37.88h-5.46l-4.79-12.42h-14.19l-4.37,12.52h-3.62l12.52-33.62s.94-2.53-4.03-3.45l-.25-.91M171.29,150.24l-6.29,16.96h12.68l-6.05-16.89-.34-.07Z"/>
  <path class="cls-14" d="M229.75,181.9v-37.97h-6.89l-11.25,32.51-11.34-32.42h-12.19v.91s5.55.08,5.55,3.96v33.01h2.86v-34.86l11.92,34.86h4.37l12.01-34.94v34.94h4.96"/>
</svg>